<?xml version="1.0" encoding="UTF-8"?>
<!DOCTYPE svg PUBLIC "-//W3C//DTD SVG 1.1//EN" "http://www.w3.org/Graphics/SVG/1.1/DTD/svg11.dtd">
<!-- Creator: CorelDRAW 2018 (64 Bit) -->
<svg xmlns="http://www.w3.org/2000/svg" xml:space="preserve" width="105.833mm" height="80.4334mm" version="1.1" style="shape-rendering:geometricPrecision; text-rendering:geometricPrecision; image-rendering:optimizeQuality; fill-rule:evenodd; clip-rule:evenodd"
viewBox="0 0 3068.42 2332"
 xmlns:xlink="http://www.w3.org/1999/xlink">
 <defs>
  <style type="text/css">
   <![CDATA[
    .fil0 {fill:none}
    .fil1 {fill:#FEFEFE}
    .fil6 {fill:#62BB51}
    .fil5 {fill:#282829}
    .fil2 {fill:#62BB51;fill-rule:nonzero}
    .fil3 {fill:#282829;fill-rule:nonzero}
    .fil7 {fill:#201E1E;fill-rule:nonzero}
    .fil4 {fill:black;fill-rule:nonzero}
   ]]>
  </style>
   <clipPath id="id0">
    <rect x="1554.67" y="76.71" width="1370.35" height="2199.03"/>
   </clipPath>
 </defs>
 <g id="Camada_x0020_1">
  <metadata id="CorelCorpID_0Corel-Layer"/>
  <g style="clip-path:url(#id0)">
   <image id="pngwing.com_x0020__x0028_1_x0029_.png" x="1554.67" y="76.71" width="1370.34" height="2199.03" xlink:href="logo-sonic-verde_Images\logo-sonic-verde_ImgID1.png"/>
  </g>
  <rect class="fil0" width="3068.42" height="2332"/>
  <g id="_1916928640336">
   <path class="fil1" d="M892.36 1192.14l0 -82.32c0,-9.06 7.39,-16.45 16.45,-16.45l39.1 0c5.79,0 10.76,2.72 13.88,7.6l55.3 86.66 0 -77.81c0,-9.06 7.39,-16.45 16.46,-16.45l48.21 0c9.06,0 16.45,7.39 16.45,16.45l0 235.3c0,9.06 -7.39,16.45 -16.45,16.45l-38.77 0c-5.77,0 -10.74,-2.72 -13.85,-7.58l-55.66 -86.87 0 77.99c0,9.06 -7.39,16.45 -16.46,16.45l-48.2 0c-3.15,0 -6.11,-0.9 -8.61,-2.45 -2.5,1.55 -5.47,2.45 -8.62,2.45l-46.19 0c-9.06,0 -16.46,-7.39 -16.46,-16.45l0 -93.72c0,-2.76 -0.25,-10.66 -1.69,-13.12 -0.15,-0.24 -0.22,-0.39 -0.42,-0.76 -0.86,-0.6 -3.72,-0.69 -4.7,-0.69 -0.49,0 -1.72,0.01 -2.18,0.24 -0.3,0.32 -0.61,1.25 -0.75,1.66 -0.05,0.14 -0.09,0.27 -0.14,0.41 -1.65,4.53 -1.7,14.87 -1.7,19.67l0 86.3c0,9.06 -7.4,16.45 -16.46,16.45l-46.19 0c-9.06,0 -16.44,-7.39 -16.44,-16.45l0 -93.72c0,-2.86 -0.22,-10.95 -1.6,-13.51 -0.57,-1.03 -3.99,-1.05 -4.87,-1.05 -1.14,0 -2.26,0.05 -3.06,0.92 -1.17,1.28 -1.39,2.85 -1.39,4.54l0 102.82c0,9.06 -7.39,16.45 -16.46,16.45l-46.18 0c-9.06,0 -16.44,-7.39 -16.44,-16.45l0 -166.53c0,-9.06 7.38,-16.46 16.44,-16.46l37.76 0c2.25,0 4.4,0.44 6.37,1.25 7.35,-3.22 15.25,-4.96 23.64,-4.96 10.31,0 21.2,1.02 30.96,4.49 5.79,2.06 11.37,5.02 16.64,8.41 12.81,-8.33 27.22,-12.9 43.08,-12.9 25.18,0 48.22,7.8 64.57,27.53 1.67,2.01 3.21,4.07 4.64,6.19zm-419.12 122.91c-11.27,13.26 -25.54,28.37 -40.8,36.98 -16.91,9.54 -36.78,12.57 -55.96,12.57 -36.68,0 -68.11,-13.37 -90.62,-42.89 -20.8,-27.29 -28.31,-60.44 -28.31,-94.25 0,-33.83 7.63,-66.76 28.25,-94.17 22.28,-29.6 53.59,-42.97 90.35,-42.97 18.42,0 37.08,2.97 53.64,11.4 16.4,8.35 30.3,21.27 41.96,35.35 5.48,6.6 4.97,16.23 -1.16,22.24l-34.05 33.38c-3.33,3.27 -7.41,4.86 -12.1,4.69 -4.66,-0.17 -8.63,-2.03 -11.73,-5.53 -9.22,-10.41 -21.85,-21.09 -36.56,-21.09 -12.57,0 -20.94,4.9 -27.24,15.75 -7.09,12.21 -9.23,27.03 -9.23,40.95 0,13.93 2.13,28.74 9.23,40.95 6.31,10.85 14.68,15.75 27.24,15.75 15.71,0 28.48,-11.68 37.75,-23.19 3,-3.74 7.01,-5.82 11.81,-6.11 4.79,-0.3 9.02,1.27 12.46,4.61l26.94 26.14c-1.12,-7.76 -1.58,-15.63 -1.58,-23.44 0,-25.47 4.95,-51.72 21.04,-72.19 17.54,-22.32 43.13,-30.89 70.92,-30.89 27.79,0 53.37,8.57 70.91,30.89 16.09,20.47 21.05,46.73 21.05,72.19 0,25.39 -4.98,51.55 -21.08,71.9 -17.61,22.25 -43.1,30.85 -70.88,30.85 -27.8,0 -53.29,-8.6 -70.88,-30.85 -4.68,-5.91 -8.42,-12.31 -11.37,-19.04zm94.79 -52.86c0,-5.79 -0.66,-20.4 -6.24,-24.23 -1.74,-1.2 -4.26,-1.46 -6.3,-1.46 -2.05,0 -4.57,0.26 -6.31,1.46 -5.57,3.83 -6.24,18.44 -6.24,24.23 0,5.73 0.67,20.07 6.15,23.88 1.75,1.22 4.33,1.47 6.4,1.47 2.06,0 4.63,-0.26 6.39,-1.47 5.49,-3.81 6.14,-18.14 6.14,-23.88zm865.4 -71.76l0 -11.84c0,-9.06 7.38,-16.46 16.44,-16.46l2.09 0 0 -28.04c0,-9.06 7.39,-16.45 16.46,-16.45l44.5 0c9.06,0 16.46,7.39 16.46,16.45l0 28.04 4.78 0c9.06,0 16.46,7.39 16.46,16.46l0 38.42c0,9.06 -7.39,16.46 -16.46,16.46l-4.78 0 0 56.85c8.31,0.81 14.83,7.85 14.83,16.37l0 38.43c0,9.06 -7.39,16.45 -16.46,16.45l-17.86 0c-17.42,0 -32.76,-6.29 -43.8,-19.92 -10.14,-12.53 -14.12,-27.82 -14.12,-43.73l0 -64.45 -2.09 0c-5.66,0 -10.66,-2.88 -13.62,-7.25l-28.51 26.18c-3.35,3.08 -7.35,4.53 -11.9,4.31 -4.55,-0.21 -8.39,-2.02 -11.45,-5.41 -3.79,-4.2 -14.5,-15.13 -20.82,-15.13 -3.21,0 -7.14,0.43 -9.77,2.46 -5.73,4.42 -6.48,17.12 -6.48,23.55 0,6.43 0.75,19.14 6.48,23.56 2.63,2.03 6.56,2.47 9.77,2.47 6.32,0 17.03,-10.93 20.82,-15.13 3.05,-3.39 6.9,-5.2 11.45,-5.42 4.55,-0.21 8.55,1.24 11.9,4.32l33.04 30.34c3.4,3.13 5.19,7.07 5.31,11.69 0.12,4.62 -1.46,8.65 -4.7,11.95 -9.57,9.77 -20.98,20.56 -32.91,27.38 -13.8,7.88 -29.09,11.27 -44.91,11.27 -27.89,0 -52.62,-9.37 -71.07,-30.6 -12.1,-13.92 -19.18,-30.1 -22.44,-47.47 -2.66,1.83 -5.85,2.9 -9.31,2.9l-6.99 0 16.88 16.69c3.23,3.2 4.87,7.1 4.87,11.65 0.02,4.55 -1.6,8.47 -4.82,11.68 -9.34,9.34 -20.17,18.94 -31.91,25.15 -13.17,6.98 -27.58,10.01 -42.43,10.01 -27.89,0 -52.63,-9.37 -71.08,-30.6 -17.59,-20.25 -24.59,-45.29 -24.59,-71.81 0,-26.25 6.69,-51.16 23.71,-71.55 18.01,-21.57 42.39,-31.2 70.28,-31.2 16.65,0 31.87,5.54 45.35,15.23 13.28,9.57 23.47,21.88 29.82,36.98 1.55,3.69 2.77,7.85 3.75,12.29 3.94,-12.1 10.1,-23.42 18.9,-33.55 18.49,-21.28 43.04,-30.95 71.07,-30.95 15.95,0 31.23,3.62 44.73,11.51 8.86,4.92 17.42,12.1 25.13,19.48z"/>
   <path class="fil2" d="M460.75 1304.33c-13.93,16.4 -26.06,27.53 -36.4,33.37 -12.37,6.96 -28.32,10.45 -47.88,10.45 -33.03,0 -58.88,-12.14 -77.53,-36.41 -16.63,-22.03 -24.94,-50.12 -24.94,-84.28 0,-34.16 8.31,-62.25 24.94,-84.27 18.21,-24.27 43.94,-36.41 77.21,-36.41 18.19,0 33.59,3.21 46.19,9.61 12.58,6.41 24.82,16.8 36.74,31.18l-34.05 33.37c-15.73,-17.75 -32.02,-26.63 -48.88,-26.63 -18.43,0 -32.25,7.98 -41.47,23.93 -7.64,13.04 -11.46,29.44 -11.46,49.22 0,19.78 3.82,36.18 11.46,49.22 9.22,15.96 23.04,23.94 41.47,23.94 17.98,0 34.83,-9.78 50.56,-29.33l34.05 33.04zm170.25 -42.14c0,26.3 -5.85,46.86 -17.54,61.7 -13.04,16.4 -32.35,24.6 -57.97,24.6 -25.63,0 -44.95,-8.2 -57.99,-24.6 -11.69,-14.84 -17.53,-35.4 -17.53,-61.7 0,-26.29 5.85,-46.97 17.53,-62.02 13.04,-16.4 32.36,-24.61 57.99,-24.61 25.62,0 44.94,8.21 57.97,24.61 11.7,15.06 17.54,35.74 17.54,62.02zm-46.54 0c0,-28.09 -9.66,-42.14 -28.98,-42.14 -19.33,0 -28.99,14.04 -28.99,42.14 0,27.87 9.66,41.8 28.99,41.8 19.32,0 28.98,-13.94 28.98,-41.8zm307.12 82.93l-46.19 0 0 -93.72c0,-9.89 -1.35,-17.08 -4.04,-21.57 -3.37,-6.29 -9.78,-9.44 -19.22,-9.44 -9.43,0 -15.62,4.38 -18.54,13.15 -1.79,4.95 -2.7,13.37 -2.7,25.28l0 86.3 -46.19 0 0 -93.72c0,-9.89 -1.24,-17.08 -3.71,-21.57 -3.59,-6.29 -10,-9.44 -19.21,-9.44 -6.29,0 -11.35,2.08 -15.17,6.24 -3.83,4.16 -5.74,9.39 -5.74,15.67l0 102.82 -46.18 0 0 -166.53 37.76 0 1.68 6.74c8.76,-6.97 18.2,-10.45 28.32,-10.45 10.33,0 18.82,1.18 25.46,3.54 6.63,2.36 14.09,6.8 22.41,13.31 12.81,-11.23 27.08,-16.85 42.82,-16.85 22.69,0 40,7.19 51.91,21.57 11.01,13.26 16.51,31.58 16.51,54.95l0 93.72z"/>
   <path class="fil3" d="M1081.74 1345.12l-38.77 0 -85.96 -134.17 0 134.17 -48.2 0 0 -235.3 39.1 0 85.63 134.17 0 -134.17 48.21 0 0 235.3zm179.01 -75.18l0 3.03 -96.42 0c2.03,21.35 12.81,32.02 32.37,32.02 10.11,0 20.56,-5.95 31.35,-17.86l31.02 30.68c-10.34,10.34 -19.67,17.76 -27.99,22.25 -10.34,5.4 -21.92,8.09 -34.72,8.09 -24.5,0 -44.04,-8.32 -58.65,-24.95 -13.71,-15.96 -20.57,-36.29 -20.57,-61.02 0,-24.94 6.62,-45.28 19.89,-61.01 13.93,-16.86 33.14,-25.28 57.64,-25.28 12.58,0 24.5,4.04 35.73,12.14 11.25,8.09 19.33,18.09 24.28,30 4.04,9.44 6.06,26.74 6.06,51.91zm-42.48 -25.62c-2.24,-17.31 -10.78,-25.96 -25.62,-25.96 -15.51,0 -24.83,8.66 -27.97,25.96l53.59 0zm211.38 70.12c-11.46,11.69 -21.24,19.88 -29.33,24.61 -10.79,6.07 -23.03,9.1 -36.75,9.1 -24.5,0 -44.05,-8.32 -58.66,-24.95 -13.7,-15.96 -20.56,-36.29 -20.56,-61.02 0,-24.94 6.86,-45.28 20.56,-61.01 14.61,-16.86 34.17,-25.28 58.66,-25.28 13.71,0 25.95,3.14 36.75,9.44 8.08,4.49 17.87,12.69 29.33,24.6l-33.04 30.34c-12.35,-13.7 -23.36,-20.56 -33.03,-20.56 -21.8,0 -32.7,14.15 -32.7,42.47 0,28.31 10.9,42.48 32.7,42.48 9.67,0 20.68,-6.85 33.03,-20.56l33.04 30.34zm104.5 -97.43l-21.24 0 0 76.86c0,8.54 4.95,12.81 14.83,12.81l0 38.43 -17.86 0c-13.26,0 -23.59,-4.61 -31.02,-13.83 -6.96,-8.54 -10.44,-19.66 -10.44,-33.37l0 -80.91 -18.55 0 0 -38.42 18.55 0 0 -44.5 44.5 0 0 44.5 21.24 0 0 38.42z"/>
   <path class="fil4" d="M979.41 1401.8l-48.69 0 0 19.45 43.35 0 0 20.05 -43.35 0 0 43.2 -21.09 0 0 -103.63 69.78 0 0 20.93zm114.64 -13.66c0,3.17 -1.12,5.87 -3.34,8.09 -2.23,2.23 -4.93,3.34 -8.09,3.34 -3.17,0 -5.87,-1.11 -8.1,-3.34 -2.23,-2.22 -3.34,-4.92 -3.34,-8.09 0,-3.17 1.11,-5.86 3.34,-8.09 2.22,-2.23 4.93,-3.34 8.1,-3.34 3.15,0 5.86,1.11 8.09,3.34 2.22,2.23 3.34,4.93 3.34,8.09zm-1.63 96.36l-19.76 0 0 -73.35 19.76 0 0 73.35zm158.43 -36.82c0,11.29 -2.28,20.25 -6.84,26.87 -5.33,7.63 -13.45,11.43 -24.34,11.43 -5.25,0 -9.55,-1.43 -12.93,-4.31l-0.74 2.82 -16.48 0 0 -103.63 20.2 0 0 31.77c3.37,-1.88 7.27,-2.82 11.73,-2.82 10.09,0 17.71,3.81 22.86,11.43 4.36,6.63 6.55,15.44 6.55,26.43zm-20.2 0.15c0,-5.54 -0.49,-9.6 -1.48,-12.17 -1.69,-4.26 -4.85,-6.39 -9.5,-6.39 -6.64,0 -9.94,3.17 -9.94,9.5l0 18.11c0,6.24 3.31,9.35 9.94,9.35 4.66,0 7.81,-2.08 9.5,-6.24 0.99,-2.58 1.48,-6.63 1.48,-12.17zm159.32 -32.96l-7.41 15.6c-3.18,-1.39 -6.05,-2.08 -8.62,-2.08 -7.02,0 -10.54,3.41 -10.54,10.24l0 45.88 -20.04 0 0 -73.35 16.33 0 0.74 3.12c4.26,-3.36 8.76,-5.04 13.51,-5.04 5.55,0 10.89,1.88 16.03,5.64zm143.14 66.37l-17.67 5.04 -1.18 -3.71c-4.86,2.57 -10.35,3.86 -16.49,3.86 -7.62,0 -13.96,-2.08 -19,-6.24 -5.44,-4.46 -8.17,-10.39 -8.17,-17.82 0,-14.65 8.92,-22.42 26.72,-23.31 3.08,-0.1 6.83,-0.15 11.29,-0.15 1.59,0 2.38,-0.59 2.38,-1.78l0 -2.07c0,-4.56 -2.77,-6.83 -8.31,-6.83 -6.14,0 -10.3,2.33 -12.48,6.98l-17.07 -5.94c3.96,-12.67 13.8,-19 29.55,-19 7.02,0 13.21,2.08 18.55,6.24 5.74,4.45 8.62,10.1 8.62,16.92l0 37.27 3.26 10.54zm-22.12 -17.67l0 -10.69c-4.56,0.3 -9.06,0.64 -13.52,1.04 -5.84,0.7 -8.75,3.07 -8.75,7.13 0,2.28 1.08,4.06 3.26,5.34 1.88,1.19 3.97,1.78 6.24,1.78 4.54,0 8.8,-1.53 12.77,-4.6z"/>
   <path class="fil1" d="M943.31 1006.01c4.24,-0.94 8.81,-1.01 13.02,-1.02 13.75,-0.03 27.53,0.64 41.32,0.64 9.39,0 18.67,-1.86 26.09,5.97l2.04 2.17 0.66 2.91c1.73,7.64 2.47,23.21 -1.5,31.84 -1.39,5.62 -5.85,7.45 -10.89,8.61l-1.19 0.28 -36.57 0.11c-8.94,0.02 -22.59,1.55 -33.24,-0.63 -4.1,18.73 -25.05,14.94 -41.14,14.94 -18.5,0 -33.66,2.82 -37.24,-15.09 -18.78,2.06 -64.58,1.62 -73.64,0.05l-5.53 -0.96 -2.44 -5.07c-2.31,-4.83 -3.3,-12.79 -3.56,-18.13 -0.48,-9.5 0.72,-22.36 11.31,-26.01 6.39,-2.2 29.64,-0.99 37.78,-0.99 9.27,0 18.48,-0.46 27.72,-0.51 2.64,-0.01 5.34,0.03 7.93,0.41 0.04,-0.32 0.08,-0.63 0.13,-0.95l0.31 -2.21 1.17 -1.91c3.08,-5.07 5.67,-7.77 9.08,-9.18 -1.07,-7.68 -0.7,-18.15 -0.53,-25.39 -7.34,0.05 -14.78,0.31 -21.98,0.4 -6.85,0.08 -13.72,0.16 -20.57,0.14 -3.87,-0.01 -9.58,0.17 -13.33,-0.55 -0.08,-0.02 -0.18,-0.03 -0.27,-0.05 -1.84,-0.16 -3.54,-0.77 -5.02,-1.73 -0.04,-0.02 -0.08,-0.04 -0.12,-0.06l-0.3 -0.13 -6.56 -3.47 -1.37 -4.18c-2.86,-8.71 -3.8,-16.02 -4.03,-23.42 -3.21,4.26 -7.92,7.11 -13.22,8.81 -8,2.58 -14.93,2.35 -22.4,-1.57 -1.68,-0.88 -3.45,-2.05 -5.18,-2.78l-1.38 -0.57 -1.95 -0.2 -0.44 -0.8 -5.96 -2.48 1.79 -4.74c-0.87,-1.34 -1.79,-2.63 -2.76,-4 -4.01,-5.58 -6.53,-11.1 -9.04,-17.48 -0.5,-1.28 -0.95,-2.58 -1.46,-3.85l-3.26 -6.79 0.61 -3.44c0.38,-2.16 -0.17,-6.2 -0.4,-8.41 -0.58,-5.81 -1.08,-11.44 -0.97,-17.29 0.35,-19.2 6.69,-36.39 16.78,-52.59 7.56,-12.15 14.78,-17.7 29.89,-16.6l3.01 0.22 1.35 0.94c0.91,0.23 1.78,0.52 2.72,0.92 2.38,1.02 3.41,1.83 5.4,3.13l2.58 1.69 1.31 2.79c1.28,2.72 2.35,5.42 3.16,8.13 0.16,-7.21 0.94,-14.28 4.49,-20.81 6.04,-11.13 14.6,-12.25 26.1,-12.25l136.48 0.01c23.87,0 31.53,-0.66 38.09,25.22l0.29 1.18 0.03 1.21c0.05,1.88 0.1,3.76 0.14,5.63 0.54,-1.57 1.22,-3.09 2.06,-4.54 2.32,-3.98 4.28,-5.3 7.45,-7.81l3.32 -5.28 7.23 1.3c3.22,0.59 6.33,0.12 10.04,0.98 7.51,1.74 12.95,6.49 17.12,12.81 4.1,6.22 8.07,13.45 10.91,20.35 7.83,18.98 9.42,35.68 7.75,56.14l-0.08 1.06 -0.29 1.03c-4.18,14.76 -6.27,24.62 -15.62,37.35 -5.22,7.1 -10.85,12.51 -19.61,14.91 -6.04,1.65 -12.01,1.68 -17.82,-0.77 -2.66,-1.12 -4.53,-2.72 -6.79,-3.81l-5.58 -1.35c-0.37,8.24 -1.87,16.41 -6.77,21.3 -6.24,6.22 -15.47,6.52 -23.73,6.53 -14.41,0.01 -28.8,0.35 -43.2,-0.1 -0.01,3.18 -0.01,6.37 -0.01,9.55 0,3.47 0.11,6.94 0.04,10.42 -0.02,2.01 -0.05,3.64 -0.38,5.39 5.43,2.13 8.96,6.46 10.58,14.46zm-142.27 -102.63l-0.01 -65.96c-0.46,1.29 -0.99,2.58 -1.63,3.87 -2.96,5.99 -7.91,11.1 -10.41,17.02 -3.17,7.46 -1.4,16.1 0.95,23.53 1.38,4.38 5.69,10.96 7.95,15.2 1.08,2.02 2.16,4.15 3.15,6.34zm205.96 -61.39c0.09,21.1 -0.17,42.19 -0.27,63.29 0.79,-1.65 1.56,-3.31 2.06,-5.16l1.39 -5.29 3.83 -1.55c3.3,-4.34 5.33,-16.58 5.53,-21.42 0.2,-4.6 -0.16,-10.02 -2,-14.29 -0.75,-1.72 -2.49,-3.79 -3.66,-5.25 -2.71,-3.37 -5.21,-6.63 -6.89,-10.32zm-152.41 -5.25c-0.28,3.87 -0.22,8.41 -0.28,12 -0.17,8.95 -0.24,17.89 -0.26,26.84 -0.01,8.94 0.01,17.89 0.14,26.82 0.05,3.91 -0.05,8.96 0.28,12.75 1.67,0 3.57,-0.11 4.69,-0.11l87.58 -0.01c1.36,0 4.23,0.08 6.46,-0.04 0.43,-4.54 0.16,-12.95 0.16,-15.65 0,-14.6 0,-29.19 0,-43.79 0,-5.6 0.67,-13.24 -0.12,-18.76 -1.25,-0.03 -2.61,0.03 -3.44,0.03l-90.64 0c-1.05,0 -2.95,-0.1 -4.57,-0.08zm-157.88 140.82l2.43 0.93 1.74 4.52c1.11,2.87 3.59,6.31 5.3,8.92 5.97,9.14 11.38,19.65 5.82,30.5 -9.26,18.07 -31.2,20.05 -45.04,5.66 -14.67,-15.25 -26.61,-35.15 -35.95,-54.11 -23.57,-47.86 -29.34,-96.66 -18.44,-148.82 6.61,-31.63 29.72,-95.22 55.68,-114.85 4.46,-3.36 4.42,-4.37 10.89,-5.61 10.98,-2.09 23.65,0.49 30.58,9.92 5.07,6.87 5.49,15.3 2.78,23.19 -1.72,5.03 -7.23,13.1 -10.12,17.75 -5.6,9.06 -11.21,18.11 -16.5,27.36 -5.05,8.84 -15.33,27 -16.63,36.96l-0.32 2.36 -1.21 1.91c-3.32,6.16 -6.8,33.17 -6.93,40.76 -0.31,18.05 1.36,30.54 4.94,48.07 4.43,21.63 17.54,46.99 30.97,64.58zm403.03 19.81c3.1,-7.53 10.34,-15.9 14.27,-22.07 3.07,-4.85 10.1,-13.93 12.05,-18.97l0.44 -3.38 2.93 -2.58c6.06,-6.6 15.88,-48.56 16.71,-58.88 4.01,-49.54 -10.11,-85.1 -36.03,-126.21 -8.08,-12.81 -25.41,-33.26 -12.44,-48.04 11.55,-13.17 20.01,-12.58 35.9,-9.07l3.5 0.77 5.21 5.94c1.86,1.6 3.4,3.06 5.11,4.95 28.46,31.45 52.3,107.43 53.44,149.7 0.32,11.92 -0.23,23.69 -2.28,35.44 -1.26,7.2 -3.22,14.12 -4.6,21.24 -0.48,2.42 -0.83,4.85 -1.02,7.31l-0.3 4.07 -2.13 2.1c-0.88,1.89 -2.16,6.14 -2.35,7.93l0.3 3.48 -3.7 5.36c-1.81,3.44 -3.41,7.98 -4.92,11.55 -2.91,6.9 -6,13.75 -9.63,20.3 -3.93,7.1 -13.01,23.8 -20.96,31.41 -2.91,5.29 -8.5,11.39 -12.57,14.2 -7.76,5.36 -15.21,6.25 -24.46,5.26l-2.78 -0.3 -11.62 -8.12 -1.12 -3.45c-0.42,-1.27 -1.22,-2.57 -1.78,-3.81 -1.83,-4.15 -2.08,-8.12 -1.46,-12.58 0.69,-4.93 2.86,-9.86 6.28,-13.55zm-7.17 -238.37c0.2,0.07 0.4,0.14 0.59,0.2l6.74 2.32 0.42 5.12c1.74,2.48 4.53,5.38 6.3,7.79 14.28,19.48 30.15,59.59 31.13,83.7 0.33,8.13 0.64,16.37 -0.05,24.49 -0.53,6.24 -1.37,12.48 -1.95,18.73l-0.1 1.24 -0.39 1.18c-2.35,7.12 -4.17,14.12 -6.23,21.29 -2.62,9.12 -6.23,17.44 -10.29,25.99 -6.16,12.98 -20.27,36.01 -34.58,40.09l-1.53 0.43 -18.74 -0.23 -3.09 -2.89c-3.57,-3.34 -6.97,-4.75 -9.72,-9.36 -4.25,-7.14 -2.19,-14.86 0.91,-21.94l0.19 -0.43 10.36 -18.98 0.08 -0.13c7.81,-13.38 16.31,-27.09 20.61,-42.08 2.5,-8.72 1.04,-32.05 -0.32,-41.49 -1.68,-11.77 -3.88,-22.69 -11.1,-32.37l-3.73 -4.03 -0.75 -1.9c-0.46,-1.19 -1.05,-2.32 -1.69,-3.42 -7.45,-12.74 -15.15,-18.84 -14.4,-35.66 1.04,-23.45 20.02,-32.61 39.46,-19.08 0.65,0.45 1.25,0.92 1.87,1.4zm-363.65 72.55c-0.71,4.53 -2.38,9.48 -3.25,13.53 -3.07,14.38 -3.51,35.56 -0.44,49.91 2.35,11.04 10.99,26.32 17.1,35.93 0.99,1.57 3.26,6.51 4.48,8.11l9.6 3.67 -3.09 7.8c2.13,5.29 5.14,10.6 5.27,16.02 0.17,7.9 -4.8,13.79 -9.89,18.83l-5.17 5.39 -5.26 -0.91c-5.02,-0.44 -10.09,-0.81 -15.11,-1.17l-5.39 -0.1 -3.15 -4.68c-0.81,-1.12 -2.86,-2.84 -3.91,-3.8 -2.86,-2.62 -5.6,-5.25 -8.05,-8.27 -1.74,-2.16 -2.84,-4.24 -4.31,-6.5 -15.06,-23.08 -25.66,-52.71 -28.38,-80.17l-0.03 -0.35 -0.02 -0.35c-0.69,-20.44 -0.51,-37.04 5.43,-56.81 7.04,-23.49 25.86,-69.33 50.87,-77.37 6.91,-2.22 14.18,-1.86 20.16,2.59 12.78,9.54 12.5,36.68 1.26,47.96 -0.77,1.63 -1.61,3.03 -2.45,4.89l-0.75 1.64 -1.24 1.31c-1.46,1.54 -4.84,6.4 -6.28,9.24l1.17 5.92 -6.79 3.19c-0.03,0.08 -0.07,0.15 -0.1,0.23 -0.68,1.43 -1.15,2.51 -2.03,3.92 -0.09,0.14 -0.17,0.27 -0.25,0.4z"/>
   <path class="fil5" d="M949.8 825.92c8.61,0 12.62,-0.23 14.09,8.43 0.94,5.52 0.37,15.24 0.37,21.21 0,14.6 0,29.19 0,43.79 0.01,26.33 0.75,26.64 -17.51,26.59l-87.58 0.01c-8.82,0.03 -13.47,1.12 -15.24,-7.38 -1.15,-5.51 -0.97,-81.82 0.2,-86.14 1.98,-7.3 6.8,-6.51 15.04,-6.51l90.64 0zm-134.55 126.94l2.39 1.26c3.06,1.39 0.1,0.5 2.95,1.05 4.86,0.93 56.12,-0.3 63.02,-0.11 1.84,2.08 0.94,0.28 1.6,3.39 0.16,0.71 0.17,4.13 0.16,5.03 -0.12,7.45 -0.76,24.53 1.12,29.84 4.8,1.31 29.59,2.28 33.45,-0.22 1.46,-1.38 0.59,0.92 1.79,-2.53 0.55,-1.57 0.47,-2.9 0.49,-4.58 0.06,-3.35 -0.05,-6.88 -0.05,-10.26 0,-6.98 0,-13.98 0.03,-20.96 18.09,1.19 35.98,0.63 54.07,0.62 21.21,-0.01 19.52,-3.88 19.52,-34.65 0,-36.38 0.81,-73.72 -0.14,-109.98 -4.84,-19.13 -6.86,-17 -27.52,-17l-136.48 -0.01c-8.56,-0.05 -12.99,0.06 -16.53,6.56 -2.98,5.49 -3.17,12.25 -3.18,19.62l0.01 90.64c0,18.89 -1.7,27.09 3.31,42.3z"/>
   <path class="fil6" d="M690.7 986.94c-1.26,-0.48 0.79,1.1 -1.1,-0.86 -0.58,-0.61 -0.61,-0.66 -1.21,-1.44 -14.7,-19.12 -28.62,-46.41 -33.34,-69.48 -3.84,-18.8 -5.52,-29.15 -5.15,-50.44 0.19,-11.32 4.53,-39.87 8.54,-46.26 2.99,-22.72 41.41,-77.31 43.76,-84.18 4.86,-14.21 -7.79,-21.4 -21.01,-18.87 -4.46,0.85 -3.22,1.23 -6.37,3.6 -24.41,18.44 -46.32,83.13 -51.58,108.37 -10.42,49.84 -5,96 17.54,141.76 9.39,19.06 21.1,37.93 34.04,51.38 9.51,9.9 22.17,7.29 27.48,-3.07 4.94,-9.63 -7.86,-20.85 -11.6,-30.52z"/>
   <path class="fil6" d="M1136.8 958.41c-0.55,4.17 -10.71,18.2 -13.59,22.74 -3.51,5.52 -13.22,17.48 -14.01,22.37 -2.39,1.66 -4.41,5.03 -4.94,8.93 -0.87,6.21 1.28,6.89 2.79,11.48l6.33 4.43c7.7,0.82 12.21,-0.01 17.1,-3.39 3.1,-2.14 8.93,-8.8 9.89,-11.92 4.11,-1.59 17.23,-24.43 20.3,-29.99 7.24,-13.07 12.2,-27.55 14.78,-32.27l1.81 -2.64c-0.28,-3.35 2.93,-13.57 4.8,-15.42 1.26,-16.84 8.82,-27.43 7.87,-62.89 -1.04,-38.99 -23.78,-113.01 -50.63,-142.68 -1.99,-2.22 -2.42,-2.55 -4.7,-4.48l-3.37 -3.85c-13.13,-2.89 -17.22,-3.68 -25.37,5.61 -6.81,7.78 6.42,23.86 13.48,35.04 26.37,41.85 41.96,79.78 37.67,132.91 -0.92,11.4 -11.31,58.16 -20.21,66.04z"/>
   <path class="fil6" d="M1077.47 811.77l2.72 2.93c8.65,11.35 11.47,23.61 13.5,37.82 1.44,10.07 2.95,35.76 0,46.03 -4.65,16.23 -13.57,30.72 -21.67,44.58l-10.06 18.43c-5.73,13.1 -0.2,12.9 6.28,18.97l12.93 0.15c10.1,-2.88 23.11,-24.57 27.72,-34.27 11.05,-23.31 8.74,-24.02 16.02,-46.04 1.84,-20.04 2.91,-18.43 1.95,-41.77 -0.89,-21.81 -16.17,-60.15 -29.03,-77.71 -3.53,-4.8 -8.04,-9.24 -8.22,-11.37 -3.22,-1.11 -2.77,-1.32 -5.14,-2.97 -14.05,-9.77 -21.78,-2.03 -22.35,10.62 -0.69,15.64 10.78,23 15.35,34.59z"/>
   <path class="fil6" d="M680.8 884.07c2.57,26.03 12.79,54.02 26.66,75.29 1.39,2.12 2.05,3.6 3.66,5.6 4.52,5.59 10.21,9.42 12.5,12.8 0.1,0 15.92,1.22 16.05,1.24l1.16 -1.21c12.08,-11.95 5.44,-12.2 0.86,-27.52l0.52 -1.34c-4.67,-1.79 -6.45,-8.02 -9.08,-12.17 -6.51,-10.24 -15.96,-27.35 -18.56,-39.5 -3.23,-15.19 -3.03,-38.21 0.45,-54.47 0.86,-3.95 3.48,-12.52 3.33,-15.41 0.88,-0.92 0.68,-0.59 1.59,-2.02 1.04,-1.67 0.44,-0.76 1.39,-2.78 2.35,-5.02 0.38,-3.12 4.41,-5.02 -0.56,-2.79 6.69,-13.39 9.51,-16.38 1.57,-3.45 2.17,-3.44 3.32,-6.99 8.81,-5.36 11.29,-40.09 -9.03,-33.56 -20.52,6.6 -38.37,52.13 -43.78,70.13 -5.49,18.32 -5.67,32.66 -4.97,53.3z"/>
   <path class="fil6" d="M1019.33 902.9c-2.76,10.48 -8.51,11.16 -4.08,26.4 4.84,1.17 7.99,7.54 18.83,4.58 6.48,-1.77 10.33,-6.24 13.71,-10.86 8.37,-11.38 9.81,-19.34 13.92,-33.86 1.67,-20.53 -0.3,-34.93 -6.96,-51.11 -2.55,-6.16 -6.56,-13.37 -9.94,-18.5 -7.13,-10.81 -14.14,-8 -19.99,-9.07 -2.16,3.42 -10.31,3.07 -9.01,22.72 0.51,7.51 8.72,13.04 11.73,20.03 7.59,17.59 -1.01,46.75 -8.21,49.65z"/>
   <path class="fil6" d="M746.95 894.85l1.87 3.92c0.65,1.55 1.03,2.72 1.64,4.29 5.97,15.15 7.7,13.63 13.04,23.22 1.11,0.11 1.66,-1.42 0.75,0.97 6.17,2.57 9.51,7.43 20.05,4.03 23.07,-7.45 -0.72,-33.4 -4.76,-46.15 -14.06,-44.5 24.26,-39.17 8.5,-72.71 -2.43,-1.59 -1.27,-1.18 -3.72,-2.23 -1.95,-0.83 -2.17,-0.26 -3.57,-1.24 -11.37,-0.82 -14.82,3.38 -19.86,11.49 -23.92,38.44 -11.78,62.15 -13.93,74.41z"/>
   <path class="fil5" d="M875.18 1006.13c-1.5,10.53 -0.3,29.45 -0.38,40.93 -0.11,17.02 4.25,13.86 27.13,13.86 20.77,0 30.73,3.31 30.95,-10.79 0.19,-11.71 0.9,-30.94 -0.22,-41.82 -1.35,-6.9 -3.73,-7.56 -11.33,-7.62l-34.71 0.01c-8.41,0.05 -8.34,0.33 -11.45,5.42z"/>
   <path class="fil5" d="M792.91 1046.05c8.4,1.45 69.42,1.56 74.61,-0.69 1.54,-4.62 0.95,-10.92 1,-16.67 0.14,-16.44 -0.46,-12.15 -39.91,-12.15 -5.12,0 -31.46,-0.55 -34.22,0.4 -6.49,2.23 -3.82,24.24 -1.47,29.12z"/>
   <path class="fil5" d="M939.4 1043.96c6.08,4.89 28.02,2.65 36.87,2.65l35.35 -0.11c4.51,-1.04 1.92,-0.54 3.1,-1.89 2.94,-2.87 2.24,-20.52 1.11,-25.53 -3.83,-4.04 -11.31,-2.56 -18.16,-2.55 -63.86,0.01 -60.77,-7.34 -58.27,27.43z"/>
   <path class="fil7" d="M315.69 1483.6l-21.32 19.96 -11.61 0 16.82 -19.96 16.12 0zm8.07 30.49l-3.01 14.08 -48.94 0 -5.47 25.71 42.78 0 -2.73 13.12 -42.94 0 -6.01 28.44 49.08 0 -3 14.08 -63.43 0 20.23 -95.42 63.44 0zm93.3 29.12l-14.91 66.3 -14.36 0 4.51 -19c-2,4.38 -4.78,8.52 -8.33,12.44 -4.38,4.83 -8.47,7.24 -12.31,7.24 -12.03,0 -17.73,-5.97 -17.09,-17.91 0.09,-2.64 0.59,-5.96 1.51,-9.98l8.74 -39.1 14.36 0 -9.29 41.97c-0.55,2.46 -0.82,4.55 -0.82,6.29 0,3.46 1.41,5.2 4.24,5.2 11.12,0 20.91,-17.82 29.4,-53.45l14.36 0zm100.13 27.2l-8.89 39.1 -14.77 0 9.71 -41.97c0.63,-2.64 0.95,-4.69 0.95,-6.15 0,-3.56 -1.41,-5.33 -4.23,-5.33 -6.56,0 -12.31,4.56 -17.22,13.67 -3.29,6.01 -5.98,13.49 -8.07,22.42 -0.82,3.64 -2.14,9.43 -3.97,17.36l-14.76 0 9.71 -41.97c0.63,-2.73 0.95,-4.87 0.95,-6.42 0,-3.37 -1.24,-5.06 -3.7,-5.06 -6.2,0 -11.81,4.15 -16.82,12.44 -3.64,6.1 -6.55,13.49 -8.75,22.15l-4.91 18.86 -14.63 0 15.17 -66.3 14.63 0 -4.24 18.87c2.19,-4.74 5.1,-8.98 8.75,-12.71 4.55,-4.56 8.97,-6.84 13.26,-6.84 4.73,0 8.48,1.59 11.21,4.78 2.91,3.46 4.14,8.38 3.69,14.77 2.01,-4.83 4.74,-9.12 8.21,-12.85 4.1,-4.46 8.24,-6.7 12.44,-6.7 11.67,0.09 17.5,6.11 17.5,18.04 0,3.01 -0.42,6.29 -1.23,9.85zm93.28 -11.62l-12.72 4.51c-1.91,-5.38 -5.37,-8.06 -10.39,-8.06 -2.27,0 -4.3,0.68 -6.08,2.04 -1.78,1.37 -2.67,2.83 -2.67,4.38 0,2.47 2.34,4.7 6.97,6.7 7.02,3 11.31,5.06 12.85,6.15 4.56,3.37 6.84,8.02 6.84,13.94 0,6.66 -2.6,12.04 -7.79,16.13 -5.2,4.11 -11.36,6.16 -18.47,6.16 -12.75,0 -20.41,-6.98 -22.96,-20.92l13.41 -3.41c0.91,7.38 4.64,11.03 11.21,10.94 2.73,0 5.17,-0.84 7.31,-2.53 2.14,-1.68 3.21,-3.8 3.21,-6.36 0,-2.46 -2.28,-4.64 -6.84,-6.56 -7.19,-2.92 -11.43,-4.83 -12.71,-5.74 -4.57,-3.01 -6.84,-7.2 -6.84,-12.58 0,-6.56 2.46,-11.76 7.38,-15.59 4.55,-3.64 10.35,-5.47 17.36,-5.47 9.75,0 16.73,5.42 20.92,16.27zm59.52 5.33c0,13.03 -2.78,23.69 -8.33,31.99 -6.47,9.75 -16.05,14.63 -28.71,14.63 -14.95,0 -22.38,-7.57 -22.28,-22.7 0.09,-12.85 2.88,-23.37 8.34,-31.58 6.56,-9.66 16.09,-14.5 28.58,-14.5 14.85,0 22.32,7.39 22.41,22.15zm-14.21 2.32c0,-3.92 -0.82,-6.72 -2.47,-8.41 -1.63,-1.69 -4.51,-2.53 -8.6,-2.53 -6.94,0 -12.17,3.42 -15.73,10.25 -2.72,5.47 -4.14,12.21 -4.23,20.23 0,3.73 0.64,6.42 1.91,8.07 1.73,2.18 4.78,3.28 9.16,3.28 7.11,0 12.4,-3.51 15.86,-10.53 2.82,-5.47 4.18,-12.26 4.1,-20.37zm77.29 4.1l-8.75 38.96 -14.48 0 9.43 -41.83c0.46,-2.1 0.68,-3.97 0.68,-5.6 0,-4.01 -1.45,-6.02 -4.38,-6.02 -10.03,0 -17.63,9.89 -22.83,29.67l-6.29 23.78 -14.35 0 14.91 -66.3 14.36 0 -4.65 18.73c6.47,-12.85 13.84,-19.28 22.14,-19.28 10.2,0 15.31,6.02 15.31,18.05 0,3.1 -0.37,6.38 -1.1,9.84zm68.69 -10.52c0,4.11 -0.36,7.84 -1.1,11.21l-8.47 38.28 -14.36 0 9.02 -41.15c0.74,-3.37 1.1,-5.79 1.1,-7.25 -0.1,-3.19 -1.41,-4.78 -3.97,-4.78 -6.75,0 -12.89,5.01 -18.46,15.04 -4.29,7.56 -7.48,16.27 -9.58,26.11l-2.59 12.03 -14.36 0 20.64 -95.42 14.36 0 -10.25 47.99c2.65,-6.38 5.97,-11.35 9.98,-14.91 3.74,-3.37 7.47,-5.06 11.21,-5.06 11.21,0 16.82,5.97 16.82,17.91zm63.62 4.11c0,13.03 -2.78,23.69 -8.33,31.99 -6.48,9.75 -16.05,14.63 -28.71,14.63 -14.95,0 -22.38,-7.57 -22.28,-22.7 0.09,-12.85 2.88,-23.37 8.34,-31.58 6.56,-9.66 16.09,-14.5 28.58,-14.5 14.85,0 22.32,7.39 22.41,22.15zm-14.21 2.32c0,-3.92 -0.82,-6.72 -2.47,-8.41 -1.63,-1.69 -4.51,-2.53 -8.6,-2.53 -6.94,0 -12.17,3.42 -15.73,10.25 -2.72,5.47 -4.14,12.21 -4.23,20.23 0,3.73 0.64,6.42 1.92,8.07 1.72,2.18 4.78,3.28 9.15,3.28 7.11,0 12.4,-3.51 15.86,-10.53 2.82,-5.47 4.18,-12.26 4.1,-20.37zm40.11 36.09l-1.65 6.97 -15.04 18.46 -5.73 0 6.56 -26.66c0.46,-1.91 1.55,-3.51 3.28,-4.78 1.74,-1.28 3.65,-1.91 5.74,-1.91 2.01,0 3.69,0.61 5.07,1.84 1.37,1.23 2.05,2.72 2.05,4.44 0,0.55 -0.09,1.09 -0.27,1.64zm103 -87.49l-21.32 19.96 -11.63 0 16.81 -19.96 16.14 0zm-0.27 43.61c0,7.39 -5.38,13.12 -16.14,17.23 -7.38,2.83 -15.81,4.46 -25.3,4.92 -0.45,2.37 -0.68,4.29 -0.68,5.75 0,7.1 3.01,10.66 9.03,10.66 2.55,0 4.73,-0.46 6.56,-1.37 2.47,-1.28 5.48,-3.74 9.03,-7.39l9.43 9.58c-4.93,4.92 -9.19,8.25 -12.78,9.98 -3.61,1.73 -7.68,2.6 -12.24,2.6 -7.39,0 -13.08,-2.28 -17.1,-6.84 -3.83,-4.28 -5.74,-10.16 -5.74,-17.63 0,-11.03 2.97,-20.78 8.89,-29.25 6.66,-9.48 15.31,-14.22 25.99,-14.22 5.47,0 10.16,1.28 14.07,3.83 4.65,3.01 6.98,7.07 6.98,12.17zm-14.08 0c0,-1.73 -2.34,-2.6 -6.97,-2.6 -7.39,0 -13.04,4.42 -16.96,13.26 4.84,-0.72 9.62,-1.87 14.36,-3.42 6.39,-2.28 9.58,-4.7 9.58,-7.25zm132.94 -27.61l-11.89 8.61c-2.74,-4.38 -5.25,-7.43 -7.52,-9.16 -3.01,-2.28 -6.87,-3.41 -11.62,-3.41 -10.68,0 -19.28,5.56 -25.85,16.68 -5.64,9.65 -8.47,20.32 -8.47,31.99 0,13.86 6.16,20.79 18.45,20.79 4.57,0 8.94,-1.37 13.13,-4.11 2.19,-1.45 5.93,-4.69 11.21,-9.71l9.7 9.85c-5.92,6.29 -11.45,10.8 -16.54,13.54 -5.74,3.1 -12.21,4.65 -19.41,4.65 -10.66,0 -18.69,-3.2 -24.07,-9.58 -4.74,-5.56 -7.11,-13.26 -7.11,-23.1 0,-17.22 3.92,-31.85 11.76,-43.88 9.2,-14.22 22.24,-21.33 39.1,-21.33 7.01,0 12.89,1.68 17.63,5.06 3.65,2.55 7.48,6.93 11.49,13.13zm54.33 33.08c0,13.03 -2.78,23.69 -8.34,31.99 -6.48,9.75 -16.04,14.63 -28.72,14.63 -14.94,0 -22.37,-7.57 -22.28,-22.7 0.09,-12.85 2.87,-23.37 8.35,-31.58 6.56,-9.66 16.08,-14.5 28.57,-14.5 14.86,0 22.32,7.39 22.42,22.15zm-14.22 2.32c0,-3.92 -0.81,-6.72 -2.46,-8.41 -1.64,-1.69 -4.51,-2.53 -8.61,-2.53 -6.92,0 -12.17,3.42 -15.73,10.25 -2.73,5.47 -4.15,12.21 -4.24,20.23 0,3.73 0.64,6.42 1.91,8.07 1.74,2.18 4.78,3.28 9.16,3.28 7.1,0 12.39,-3.51 15.86,-10.53 2.82,-5.47 4.19,-12.26 4.1,-20.37zm117.09 3.97l-8.89 39.1 -14.77 0 9.71 -41.97c0.64,-2.64 0.95,-4.69 0.95,-6.15 0,-3.56 -1.41,-5.33 -4.23,-5.33 -6.56,0 -12.31,4.56 -17.22,13.67 -3.29,6.01 -5.98,13.49 -8.06,22.42 -0.83,3.64 -2.15,9.43 -3.97,17.36l-14.76 0 9.71 -41.97c0.64,-2.73 0.95,-4.87 0.95,-6.42 0,-3.37 -1.23,-5.06 -3.7,-5.06 -6.2,0 -11.81,4.15 -16.82,12.44 -3.64,6.1 -6.56,13.49 -8.75,22.15l-4.91 18.86 -14.63 0 15.17 -66.3 14.63 0 -4.23 18.87c2.18,-4.74 5.1,-8.98 8.75,-12.71 4.55,-4.56 8.97,-6.84 13.26,-6.84 4.73,0 8.47,1.59 11.21,4.78 2.91,3.46 4.14,8.38 3.69,14.77 2,-4.83 4.74,-9.12 8.2,-12.85 4.1,-4.46 8.24,-6.7 12.44,-6.7 11.67,0.09 17.5,6.11 17.5,18.04 0,3.01 -0.41,6.29 -1.23,9.85zm95.07 -56.33l-20.37 95.42 -12.71 0 -27.21 -66.03 -13.95 66.03 -14.49 0 20.24 -95.42 11.62 0 27.89 67.94 14.49 -67.94 14.5 0zm55.7 44.57c0,7.39 -5.38,13.12 -16.14,17.23 -7.37,2.73 -15.81,4.37 -25.29,4.92 -0.46,2.37 -0.68,4.29 -0.68,5.75 0,7.1 3.01,10.66 9.02,10.66 2.55,0 4.74,-0.46 6.56,-1.37 2.47,-1.28 5.48,-3.74 9.03,-7.39l9.43 9.58c-4.92,4.92 -9.18,8.25 -12.77,9.98 -3.6,1.73 -7.67,2.6 -12.24,2.6 -7.38,0 -13.08,-2.28 -17.09,-6.84 -3.83,-4.28 -5.73,-10.16 -5.73,-17.63 0,-11.03 2.97,-20.78 8.88,-29.25 6.66,-9.48 15.31,-14.22 25.99,-14.22 5.46,0 10.16,1.28 14.08,3.83 4.64,3.01 6.97,7.07 6.97,12.17zm-14.08 0c0,-1.73 -2.34,-2.6 -6.97,-2.6 -7.39,0 -13.04,4.42 -16.96,13.26 4.84,-0.72 9.62,-1.87 14.36,-3.42 6.38,-2.28 9.58,-4.7 9.58,-7.25zm73.05 -1.37l-11.35 6.56c-3.1,-5.1 -6.65,-7.65 -10.66,-7.65 -6.37,0 -11.58,3.42 -15.59,10.25 -3.46,5.93 -5.19,12.4 -5.19,19.42 0,7.56 2.78,11.35 8.33,11.35 2.47,0 4.56,-0.46 6.29,-1.37 2.37,-1.09 5.48,-3.47 9.3,-7.11l9.58 9.3c-5.2,4.83 -9.58,8.13 -13.12,9.91 -3.57,1.78 -7.57,2.67 -12.04,2.67 -7.74,0 -13.54,-2.37 -17.35,-7.11 -3.38,-4.1 -5.06,-9.75 -5.06,-16.95 0,-11.21 2.95,-21.05 8.87,-29.53 6.56,-9.57 15.23,-14.36 25.98,-14.36 9.66,0 17,4.88 22.01,14.63zm38.33 -14.08l-2.18 11.35 -9.43 0 -7.79 38c-0.45,2.1 0.41,3.14 2.6,3.14l4.64 0 -2.73 13.81 -5.33 0c-8.65,0 -12.99,-4.42 -12.99,-13.26 0,-1.73 0.18,-3.51 0.55,-5.33l7.37 -36.37 -8.2 0 2.19 -11.35 8.34 0 3.96 -19.28 13.68 0 -4.11 19.28 9.43 0zm36.56 -29.12l-9.43 46.89 -6.15 27.07 -12.85 0 5.07 -28.57 9.16 -45.39 14.21 0zm-26.37 96.52c-2.1,0 -3.84,-0.71 -5.2,-2.13 -1.36,-1.41 -2.05,-3.16 -2.05,-5.26 0,-2.46 0.95,-4.64 2.87,-6.56 1.91,-1.91 4.1,-2.87 6.56,-2.87 2.19,0 3.94,0.71 5.26,2.12 1.32,1.41 1.99,3.17 1.99,5.26 0,2.47 -0.93,4.65 -2.79,6.56 -1.87,1.92 -4.09,2.88 -6.63,2.88z"/>
  </g>
 </g>
</svg>
