<?xml version="1.0" encoding="UTF-8"?>
<!DOCTYPE svg PUBLIC "-//W3C//DTD SVG 1.1//EN" "http://www.w3.org/Graphics/SVG/1.1/DTD/svg11.dtd">
<!-- Creator: CorelDRAW 2018 (64 Bit) -->
<svg xmlns="http://www.w3.org/2000/svg" xml:space="preserve" width="47.2648mm" height="33.2199mm" version="1.1" style="shape-rendering:geometricPrecision; text-rendering:geometricPrecision; image-rendering:optimizeQuality; fill-rule:evenodd; clip-rule:evenodd"
viewBox="0 0 2297.02 1614.46"
 xmlns:xlink="http://www.w3.org/1999/xlink">
 <defs>
  <style type="text/css">
   <![CDATA[
    .fil0 {fill:#FEFEFE}
    .fil5 {fill:#62BB51}
    .fil4 {fill:#282829}
    .fil1 {fill:#62BB51;fill-rule:nonzero}
    .fil2 {fill:#282829;fill-rule:nonzero}
    .fil6 {fill:#201E1E;fill-rule:nonzero}
    .fil3 {fill:black;fill-rule:nonzero}
   ]]>
  </style>
 </defs>
 <g id="Camada_x0020_1">
  <metadata id="CorelCorpID_0Corel-Layer"/>
  <g id="_1916928527696">
   <path class="fil0" d="M1139.73 852.9l0 -143.84c0,-15.84 12.91,-28.75 28.75,-28.75l68.33 0c10.11,0 18.8,4.76 24.25,13.28l96.62 151.43 0 -135.96c0,-15.84 12.92,-28.75 28.76,-28.75l84.23 0c15.84,0 28.74,12.91 28.74,28.75l0 411.16c0,15.83 -12.9,28.75 -28.74,28.75l-67.75 0c-10.08,0 -18.75,-4.75 -24.19,-13.24l-97.25 -151.78 0 136.28c0,15.83 -12.92,28.75 -28.76,28.75l-84.23 0c-5.51,0 -10.67,-1.56 -15.05,-4.28 -4.38,2.71 -9.55,4.28 -15.06,4.28l-80.7 0c-15.83,0 -28.75,-12.92 -28.75,-28.75l0 -163.76c0,-4.83 -0.44,-18.62 -2.95,-22.92 -0.27,-0.41 -0.39,-0.69 -0.74,-1.32 -1.49,-1.04 -6.49,-1.21 -8.2,-1.21 -0.86,0 -3,0.01 -3.82,0.42 -0.53,0.56 -1.06,2.19 -1.31,2.9 -0.08,0.25 -0.16,0.47 -0.24,0.72 -2.89,7.91 -2.98,25.98 -2.98,34.36l0 150.8c0,15.83 -12.93,28.75 -28.77,28.75l-80.7 0c-15.83,0 -28.73,-12.92 -28.73,-28.75l0 -163.76c0,-4.99 -0.39,-19.14 -2.8,-23.61 -1,-1.79 -6.98,-1.84 -8.5,-1.84 -1.99,0 -3.96,0.09 -5.35,1.61 -2.05,2.23 -2.43,4.98 -2.43,7.93l0 179.67c0,15.83 -12.92,28.75 -28.76,28.75l-80.69 0c-15.82,0 -28.73,-12.92 -28.73,-28.75l0 -290.99c0,-15.84 12.91,-28.76 28.73,-28.76l65.98 0c3.93,0 7.69,0.77 11.12,2.18 12.84,-5.62 26.65,-8.67 41.3,-8.67 18.01,0 37.04,1.78 54.1,7.85 10.11,3.6 19.86,8.77 29.08,14.69 22.38,-14.57 47.57,-22.54 75.28,-22.54 44,0 84.26,13.64 112.83,48.1 2.92,3.5 5.61,7.11 8.1,10.81zm-732.35 214.77c-19.69,23.17 -44.63,49.57 -71.3,64.63 -29.54,16.66 -64.27,21.96 -97.78,21.96 -64.1,0 -119.02,-23.35 -158.35,-74.93 -36.34,-47.7 -49.46,-105.61 -49.46,-164.69 0,-59.12 13.33,-116.67 49.37,-164.55 38.93,-51.73 93.65,-75.08 157.87,-75.08 32.19,0 64.8,5.2 93.72,19.92 28.66,14.58 52.94,37.17 73.31,61.77 9.57,11.54 8.69,28.37 -2.02,38.86l-59.5 58.32c-5.83,5.72 -12.95,8.49 -21.14,8.19 -8.15,-0.29 -15.08,-3.55 -20.5,-9.66 -16.12,-18.2 -38.18,-36.85 -63.88,-36.85 -21.97,0 -36.59,8.56 -47.6,27.51 -12.4,21.33 -16.13,47.24 -16.13,71.56 0,24.33 3.72,50.22 16.13,71.55 11.02,18.95 25.64,27.53 47.6,27.53 27.44,0 49.77,-20.4 65.96,-40.52 5.24,-6.53 12.25,-10.16 20.63,-10.67 8.37,-0.52 15.76,2.22 21.78,8.06l47.07 45.68c-1.95,-13.56 -2.76,-27.32 -2.76,-40.96 0,-44.5 8.65,-90.37 36.77,-126.15 30.65,-39.01 75.36,-53.98 123.93,-53.98 48.56,0 93.25,14.97 123.9,53.98 28.12,35.78 36.79,81.65 36.79,126.15 0,44.36 -8.69,90.08 -36.83,125.64 -30.77,38.87 -75.3,53.91 -123.86,53.91 -48.58,0 -93.12,-15.04 -123.86,-53.91 -8.18,-10.32 -14.71,-21.51 -19.86,-33.27zm165.62 -92.37c0,-10.11 -1.16,-35.65 -10.89,-42.34 -3.04,-2.09 -7.45,-2.54 -11.01,-2.54 -3.59,0 -7.99,0.45 -11.02,2.54 -9.73,6.69 -10.91,32.23 -10.91,42.34 0,10.02 1.16,35.06 10.75,41.72 3.07,2.13 7.57,2.58 11.18,2.58 3.6,0 8.09,-0.45 11.17,-2.58 9.58,-6.65 10.73,-31.7 10.73,-41.72zm1512.16 -125.39l0 -20.68c0,-15.84 12.91,-28.76 28.74,-28.76l3.65 0 0 -49.01c0,-15.84 12.92,-28.74 28.75,-28.74l77.75 0c15.82,0 28.76,12.9 28.76,28.74l0 49.01 8.35 0c15.84,0 28.76,12.92 28.76,28.76l0 67.14c0,15.84 -12.92,28.76 -28.76,28.76l-8.35 0 0 99.33c14.51,1.43 25.91,13.72 25.91,28.61l0 67.15c0,15.83 -12.92,28.75 -28.76,28.75l-31.22 0c-30.43,0 -57.24,-10.99 -76.53,-34.8 -17.72,-21.89 -24.67,-48.6 -24.67,-76.42l0 -112.62 -3.65 0c-9.89,0 -18.63,-5.03 -23.8,-12.67l-49.82 45.74c-5.85,5.39 -12.84,7.92 -20.79,7.54 -7.94,-0.37 -14.66,-3.54 -19.99,-9.46 -6.62,-7.34 -25.33,-26.43 -36.38,-26.43 -5.61,0 -12.48,0.76 -17.08,4.31 -10.03,7.73 -11.32,29.92 -11.32,41.16 0,11.24 1.3,33.45 11.32,41.17 4.6,3.54 11.47,4.31 17.08,4.31 11.04,0 29.75,-19.1 36.38,-26.44 5.33,-5.91 12.05,-9.09 19.99,-9.47 7.96,-0.37 14.94,2.16 20.79,7.55l57.74 53.01c5.94,5.47 9.07,12.34 9.28,20.43 0.22,8.08 -2.54,15.11 -8.21,20.88 -16.72,17.07 -36.66,35.93 -57.5,47.84 -24.11,13.77 -50.82,19.69 -78.47,19.69 -48.74,0 -91.94,-16.38 -124.19,-53.48 -21.14,-24.32 -33.51,-52.59 -39.2,-82.94 -4.65,3.2 -10.23,5.07 -16.26,5.07l-12.22 0 29.49 29.16c5.64,5.58 8.5,12.41 8.51,20.35 0.03,7.95 -2.79,14.79 -8.41,20.41 -16.33,16.32 -35.25,33.09 -55.75,43.95 -23.01,12.19 -48.19,17.48 -74.14,17.48 -48.74,0 -91.95,-16.38 -124.2,-53.48 -30.73,-35.38 -42.97,-79.13 -42.97,-125.48 0,-45.87 11.69,-89.4 41.43,-125.03 31.47,-37.7 74.07,-54.51 122.8,-54.51 29.1,0 55.68,9.68 79.25,26.62 23.2,16.72 41.01,38.24 52.11,64.61 2.71,6.44 4.84,13.71 6.55,21.47 6.89,-21.15 17.64,-40.93 33.02,-58.63 32.32,-37.19 75.21,-54.08 124.19,-54.08 27.87,0 54.57,6.33 78.15,20.12 15.48,8.6 30.43,21.14 43.9,34.04z"/>
   <path class="fil1" d="M385.57 1048.93c-24.34,28.66 -45.55,48.11 -63.61,58.32 -21.61,12.17 -49.48,18.26 -83.66,18.26 -57.72,0 -102.88,-21.2 -135.48,-63.61 -29.05,-38.49 -43.58,-87.58 -43.58,-147.27 0,-59.68 14.53,-108.77 43.58,-147.26 31.82,-42.41 76.79,-63.63 134.91,-63.63 31.79,0 58.69,5.61 80.7,16.79 21.97,11.2 43.37,29.35 64.2,54.49l-59.5 58.31c-27.49,-31.02 -55.95,-46.53 -85.4,-46.53 -32.21,0 -56.37,13.94 -72.47,41.82 -13.36,22.78 -20.03,51.44 -20.03,86 0,34.56 6.68,63.22 20.03,86 16.1,27.88 40.26,41.82 72.47,41.82 31.41,0 60.87,-17.08 88.34,-51.25l59.5 57.73zm297.48 -73.63c0,45.95 -10.22,81.87 -30.65,107.8 -22.78,28.66 -56.54,43 -101.3,43 -44.77,0 -78.54,-14.33 -101.32,-43 -20.43,-25.93 -30.64,-61.85 -30.64,-107.8 0,-45.94 10.22,-82.07 30.64,-108.38 22.78,-28.66 56.54,-43.01 101.32,-43.01 44.76,0 78.52,14.34 101.3,43.01 20.43,26.31 30.65,62.44 30.65,108.38zm-81.31 0c0,-49.09 -16.88,-73.62 -50.64,-73.62 -33.78,0 -50.66,24.54 -50.66,73.62 0,48.7 16.88,73.05 50.66,73.05 33.76,0 50.64,-24.35 50.64,-73.05zm536.64 144.91l-80.7 0 0 -163.76c0,-17.28 -2.35,-29.85 -7.07,-37.7 -5.89,-11 -17.09,-16.49 -33.58,-16.49 -16.48,0 -27.3,7.65 -32.4,22.98 -3.12,8.64 -4.71,23.36 -4.71,44.18l0 150.8 -80.7 0 0 -163.76c0,-17.28 -2.16,-29.85 -6.47,-37.7 -6.27,-11 -17.47,-16.49 -33.57,-16.49 -10.99,0 -19.83,3.64 -26.51,10.9 -6.69,7.27 -10.03,16.4 -10.03,27.39l0 179.67 -80.69 0 0 -290.99 65.98 0 2.94 11.78c15.31,-12.18 31.81,-18.26 49.49,-18.26 18.05,0 32.88,2.06 44.48,6.18 11.59,4.13 24.62,11.88 39.16,23.26 22.39,-19.63 47.32,-29.45 74.82,-29.45 39.65,0 69.89,12.56 90.71,37.7 19.24,23.17 28.86,55.17 28.86,96.01l0 163.76z"/>
   <path class="fil2" d="M1470.66 1120.21l-67.75 0 -150.2 -234.44 0 234.44 -84.23 0 0 -411.16 68.33 0 149.63 234.44 0 -234.44 84.23 0 0 411.16zm312.79 -131.36l0 5.3 -168.48 0c3.54,37.31 22.38,55.96 56.56,55.96 17.66,0 35.92,-10.41 54.77,-31.22l54.2 53.6c-18.06,18.07 -34.37,31.03 -48.9,38.88 -18.07,9.42 -38.3,14.13 -60.67,14.13 -42.81,0 -76.96,-14.53 -102.49,-43.59 -23.96,-27.89 -35.94,-63.42 -35.94,-106.62 0,-43.58 11.58,-79.13 34.76,-106.61 24.34,-29.46 57.91,-44.18 100.72,-44.18 21.99,0 42.81,7.07 62.43,21.2 19.65,14.14 33.78,31.61 42.43,52.42 7.06,16.49 10.6,46.73 10.6,90.71zm-74.24 -44.76c-3.92,-30.24 -18.84,-45.36 -44.76,-45.36 -27.1,0 -43.38,15.12 -48.88,45.36l93.65 0zm369.35 122.53c-20.02,20.42 -37.12,34.74 -51.25,42.99 -18.86,10.61 -40.24,15.91 -64.21,15.91 -42.81,0 -76.98,-14.53 -102.51,-43.59 -23.94,-27.89 -35.93,-63.42 -35.93,-106.62 0,-43.58 11.99,-79.13 35.93,-106.61 25.52,-29.46 59.69,-44.18 102.51,-44.18 23.96,0 45.35,5.49 64.21,16.49 14.13,7.85 31.22,22.18 51.25,43l-57.74 53.02c-21.58,-23.95 -40.82,-35.93 -57.72,-35.93 -38.09,0 -57.13,24.73 -57.13,74.21 0,49.48 19.05,74.22 57.13,74.22 16.89,0 36.13,-11.97 57.72,-35.92l57.74 53.02zm182.6 -170.25l-37.11 0 0 134.31c0,14.92 8.64,22.38 25.91,22.38l0 67.15 -31.22 0c-23.17,0 -41.22,-8.06 -54.2,-24.16 -12.17,-14.92 -18.25,-34.35 -18.25,-58.31l0 -141.37 -32.41 0 0 -67.14 32.41 0 0 -77.76 77.75 0 0 77.76 37.11 0 0 67.14z"/>
   <path class="fil3" d="M1291.84 1219.25l-85.08 0 0 33.99 75.75 0 0 35.03 -75.75 0 0 75.48 -36.85 0 0 -181.08 121.93 0 0 36.58zm200.31 -23.87c0,5.54 -1.95,10.25 -5.84,14.14 -3.9,3.9 -8.62,5.84 -14.14,5.84 -5.54,0 -10.26,-1.94 -14.15,-5.84 -3.9,-3.88 -5.84,-8.6 -5.84,-14.14 0,-5.53 1.94,-10.24 5.84,-14.13 3.88,-3.9 8.61,-5.84 14.15,-5.84 5.52,0 10.24,1.94 14.14,5.84 3.88,3.89 5.84,8.61 5.84,14.13zm-2.85 168.37l-34.52 0 0 -128.16 34.52 0 0 128.16zm276.83 -64.34c0,19.72 -3.98,35.38 -11.96,46.96 -9.32,13.32 -23.5,19.97 -42.53,19.97 -9.17,0 -16.69,-2.51 -22.58,-7.53l-1.3 4.93 -28.79 0 0 -181.08 35.29 0 0 55.52c5.89,-3.29 12.71,-4.93 20.49,-4.93 17.63,0 30.95,6.65 39.94,19.97 7.62,11.59 11.44,26.99 11.44,46.18zm-35.3 0.26c0,-9.69 -0.86,-16.78 -2.59,-21.27 -2.95,-7.44 -8.47,-11.16 -16.61,-11.16 -11.6,0 -17.38,5.54 -17.38,16.61l0 31.65c0,10.9 5.78,16.34 17.38,16.34 8.14,0 13.65,-3.64 16.61,-10.9 1.73,-4.51 2.59,-11.59 2.59,-21.28zm278.39 -57.6l-12.96 27.25c-5.55,-2.43 -10.56,-3.64 -15.06,-3.64 -12.27,0 -18.42,5.97 -18.42,17.9l0 80.16 -35.01 0 0 -128.16 28.53 0 1.3 5.45c7.45,-5.88 15.31,-8.82 23.6,-8.82 9.69,0 19.02,3.29 28.01,9.85zm250.12 115.97l-30.87 8.82 -2.07 -6.48c-8.48,4.5 -18.08,6.75 -28.8,6.75 -13.32,0 -24.39,-3.64 -33.2,-10.9 -9.52,-7.8 -14.29,-18.16 -14.29,-31.14 0,-25.59 15.59,-39.18 46.7,-40.73 5.38,-0.17 11.94,-0.26 19.72,-0.26 2.78,0 4.16,-1.04 4.16,-3.12l0 -3.62c0,-7.97 -4.85,-11.94 -14.53,-11.94 -10.74,0 -17.99,4.07 -21.81,12.19l-29.82 -10.38c6.92,-22.14 24.11,-33.2 51.63,-33.2 12.26,0 23.09,3.63 32.42,10.9 10.03,7.78 15.06,17.64 15.06,29.57l0 65.12 5.7 18.42zm-38.65 -30.88l0 -18.68c-7.97,0.53 -15.84,1.13 -23.62,1.82 -10.21,1.21 -15.3,5.37 -15.3,12.46 0,3.98 1.9,7.09 5.7,9.34 3.29,2.08 6.93,3.11 10.91,3.11 7.94,0 15.38,-2.68 22.31,-8.04z"/>
   <g>
    <path class="fil0" d="M1228.77 527.67c7.41,-1.64 15.39,-1.77 22.75,-1.78 24.03,-0.04 48.11,1.13 72.21,1.12 16.4,0 32.62,-3.24 45.58,10.42l3.57 3.79 1.16 5.09c3.01,13.34 4.32,40.56 -2.63,55.64 -2.43,9.81 -10.22,13.01 -19.02,15.04l-2.08 0.49 -63.9 0.18c-15.62,0.03 -39.48,2.7 -58.09,-1.09 -7.16,32.73 -43.76,26.1 -71.88,26.1 -32.33,0 -58.81,4.92 -65.06,-26.36 -32.82,3.61 -112.84,2.84 -128.68,0.09l-9.67 -1.68 -4.26 -8.85c-4.05,-8.45 -5.77,-22.35 -6.23,-31.67 -0.84,-16.61 1.25,-39.08 19.77,-45.45 11.17,-3.85 51.79,-1.73 66.01,-1.73 16.19,0 32.3,-0.8 48.43,-0.88 4.62,-0.02 9.33,0.04 13.86,0.71 0.07,-0.55 0.14,-1.1 0.22,-1.65l0.55 -3.86 2.05 -3.33c5.38,-8.86 9.89,-13.57 15.86,-16.03 -1.88,-13.42 -1.23,-31.71 -0.92,-44.37 -12.83,0.08 -25.84,0.54 -38.41,0.69 -11.97,0.15 -23.97,0.29 -35.94,0.26 -6.76,-0.02 -16.74,0.3 -23.29,-0.97 -0.15,-0.03 -0.32,-0.06 -0.47,-0.08 -3.21,-0.27 -6.2,-1.34 -8.77,-3.02 -0.07,-0.03 -0.15,-0.07 -0.22,-0.1l-0.52 -0.23 -11.47 -6.07 -2.39 -7.3c-5,-15.22 -6.64,-27.98 -7.05,-40.93 -5.61,7.45 -13.85,12.43 -23.1,15.4 -13.98,4.51 -26.09,4.1 -39.14,-2.74 -2.94,-1.54 -6.02,-3.59 -9.04,-4.85l-2.41 -1 -3.4 -0.35 -0.77 -1.4 -10.41 -4.33 3.12 -8.28c-1.53,-2.35 -3.12,-4.6 -4.83,-6.99 -7.01,-9.74 -11.4,-19.39 -15.79,-30.55 -0.87,-2.23 -1.65,-4.51 -2.55,-6.72l-5.69 -11.87 1.05 -6.01c0.67,-3.78 -0.29,-10.83 -0.69,-14.69 -1.01,-10.15 -1.88,-19.99 -1.69,-30.21 0.61,-33.55 11.69,-63.58 29.31,-91.89 13.22,-21.24 25.83,-30.93 52.24,-29.01l5.25 0.39 2.36 1.64c1.59,0.4 3.12,0.91 4.75,1.61 4.16,1.78 5.95,3.19 9.43,5.46l4.51 2.95 2.3 4.88c2.23,4.74 4.12,9.47 5.53,14.21 0.28,-12.6 1.63,-24.97 7.84,-36.37 10.56,-19.44 25.5,-21.4 45.6,-21.4l238.48 0.02c41.71,0 55.1,-1.15 66.56,44.07l0.51 2.06 0.06 2.11c0.09,3.28 0.18,6.57 0.25,9.84 0.94,-2.75 2.12,-5.4 3.6,-7.93 4.06,-6.95 7.48,-9.26 13.02,-13.66l5.81 -9.23 12.64 2.28c5.62,1.02 11.07,0.22 17.55,1.71 13.11,3.03 22.62,11.33 29.92,22.39 7.16,10.87 14.1,23.5 19.06,35.56 13.68,33.15 16.46,62.35 13.53,98.09l-0.14 1.85 -0.51 1.79c-7.3,25.79 -10.95,43.02 -27.29,65.26 -9.12,12.4 -18.96,21.86 -34.27,26.05 -10.55,2.88 -20.99,2.93 -31.14,-1.35 -4.64,-1.95 -7.92,-4.74 -11.86,-6.65l-9.75 -2.37c-0.64,14.4 -3.26,28.67 -11.82,37.21 -10.91,10.87 -27.03,11.4 -41.47,11.41 -25.18,0.01 -50.32,0.61 -75.48,-0.17 -0.01,5.56 -0.01,11.12 -0.01,16.69 0,6.07 0.19,12.14 0.08,18.21 -0.03,3.5 -0.09,6.37 -0.67,9.42 9.5,3.71 15.66,11.28 18.48,25.26zm-248.6 -179.33l-0.01 -115.25c-0.8,2.25 -1.73,4.51 -2.85,6.77 -5.17,10.46 -13.83,19.4 -18.2,29.75 -5.53,13.03 -2.44,28.13 1.66,41.11 2.42,7.64 9.94,19.14 13.89,26.54 1.89,3.54 3.78,7.26 5.51,11.08zm359.89 -107.26c0.16,36.87 -0.3,73.72 -0.47,110.59 1.39,-2.89 2.72,-5.79 3.6,-9.02l2.43 -9.25 6.69 -2.7c5.77,-7.59 9.31,-28.97 9.66,-37.44 0.36,-8.03 -0.27,-17.5 -3.49,-24.97 -1.31,-3 -4.36,-6.62 -6.39,-9.18 -4.72,-5.88 -9.1,-11.58 -12.03,-18.03zm-266.32 -9.17c-0.49,6.76 -0.38,14.69 -0.49,20.96 -0.3,15.63 -0.41,31.26 -0.46,46.89 -0.02,15.62 0.02,31.25 0.25,46.87 0.09,6.84 -0.09,15.66 0.49,22.28 2.92,0 6.24,-0.19 8.2,-0.19l153.04 -0.01c2.38,0 7.39,0.15 11.29,-0.07 0.74,-7.93 0.27,-22.62 0.27,-27.34 0,-25.5 0,-51 0,-76.5 0,-9.79 1.18,-23.14 -0.2,-32.79 -2.19,-0.05 -4.56,0.04 -6.01,0.04l-158.38 0c-1.84,0 -5.15,-0.17 -7.99,-0.14zm-275.87 246.06l4.24 1.62 3.05 7.89c1.94,5.03 6.27,11.04 9.26,15.59 10.43,15.97 19.88,34.34 10.17,53.29 -16.18,31.58 -54.51,35.04 -78.71,9.89 -25.63,-26.65 -46.5,-61.42 -62.82,-94.55 -41.19,-83.62 -51.26,-168.9 -32.21,-260.03 11.55,-55.27 51.92,-166.38 97.3,-200.68 7.8,-5.88 7.72,-7.64 19.02,-9.81 19.18,-3.65 41.33,0.87 53.44,17.34 8.86,12.01 9.58,26.73 4.86,40.52 -3,8.79 -12.64,22.89 -17.68,31.02 -9.79,15.82 -19.59,31.65 -28.84,47.81 -8.83,15.44 -26.78,47.18 -29.06,64.58l-0.55 4.13 -2.11 3.33c-5.79,10.77 -11.87,57.95 -12.11,71.22 -0.54,31.55 2.38,53.36 8.63,83.99 7.73,37.79 30.65,82.1 54.12,112.85zm704.24 34.62c5.41,-13.16 18.08,-27.78 24.94,-38.57 5.37,-8.49 17.64,-24.34 21.05,-33.15l0.77 -5.9 5.12 -4.51c10.58,-11.53 27.75,-84.85 29.2,-102.89 7,-86.56 -17.66,-148.7 -62.96,-220.54 -14.11,-22.37 -44.4,-58.12 -21.75,-83.94 20.18,-23.01 34.96,-21.98 62.74,-15.85l6.11 1.35 9.1 10.38c3.25,2.79 5.94,5.34 8.93,8.64 49.73,54.95 91.39,187.71 93.38,261.58 0.55,20.82 -0.4,41.4 -3.98,61.93 -2.2,12.57 -5.62,24.66 -8.05,37.11 -0.83,4.23 -1.44,8.47 -1.78,12.77l-0.52 7.11 -3.73 3.68c-1.54,3.3 -3.77,10.72 -4.1,13.85l0.53 6.09 -6.47 9.37c-3.16,6.01 -5.96,13.95 -8.59,20.18 -5.08,12.06 -10.5,24.02 -16.84,35.48 -6.87,12.41 -22.73,41.6 -36.61,54.88 -5.08,9.25 -14.86,19.89 -21.97,24.81 -13.55,9.37 -26.57,10.92 -42.74,9.19l-4.86 -0.52 -20.3 -14.19 -1.97 -6.03c-0.73,-2.22 -2.14,-4.5 -3.1,-6.65 -3.2,-7.27 -3.64,-14.2 -2.55,-21.99 1.21,-8.62 4.99,-17.23 10.97,-23.68zm-12.53 -416.51c0.35,0.13 0.7,0.24 1.03,0.35l11.77 4.06 0.74 8.95c3.03,4.34 7.91,9.4 11.01,13.62 24.95,34.04 52.69,104.11 54.4,146.25 0.57,14.21 1.13,28.6 -0.09,42.79 -0.92,10.9 -2.39,21.8 -3.4,32.72l-0.18 2.17 -0.69 2.07c-4.11,12.43 -7.28,24.67 -10.88,37.2 -4.57,15.93 -10.89,30.47 -17.98,45.42 -10.75,22.69 -35.42,62.91 -60.42,70.05l-2.66 0.76 -32.76 -0.4 -5.4 -5.05c-6.24,-5.84 -12.18,-8.3 -16.99,-16.35 -7.43,-12.47 -3.84,-25.97 1.59,-38.34l0.33 -0.75 18.11 -33.16 0.14 -0.23c13.65,-23.38 28.49,-47.33 36.01,-73.53 4.36,-15.23 1.81,-56 -0.55,-72.5 -2.93,-20.56 -6.78,-39.64 -19.39,-56.55l-6.52 -7.05 -1.31 -3.32c-0.8,-2.07 -1.84,-4.06 -2.95,-5.98 -13.01,-22.26 -26.48,-32.92 -25.15,-62.3 1.81,-40.97 34.97,-56.97 68.94,-33.34 1.14,0.79 2.19,1.62 3.28,2.45zm-635.42 126.77c-1.24,7.92 -4.16,16.56 -5.68,23.63 -5.37,25.14 -6.12,62.13 -0.77,87.22 4.12,19.29 19.21,45.99 29.88,62.78 1.73,2.74 5.69,11.37 7.82,14.17l16.77 6.41 -5.4 13.63c3.72,9.24 8.98,18.53 9.2,28 0.3,13.8 -8.38,24.1 -17.29,32.89l-9.03 9.41 -9.19 -1.59c-8.78,-0.77 -17.63,-1.42 -26.41,-2.05l-9.42 -0.17 -5.51 -8.17c-1.42,-1.96 -5,-4.95 -6.82,-6.63 -5,-4.57 -9.79,-9.17 -14.07,-14.46 -3.03,-3.77 -4.95,-7.41 -7.53,-11.36 -26.32,-40.33 -44.85,-92.09 -49.58,-140.09l-0.06 -0.61 -0.03 -0.61c-1.21,-35.72 -0.89,-64.73 9.5,-99.28 12.31,-41.04 45.19,-121.13 88.9,-135.19 12.08,-3.87 24.78,-3.25 35.22,4.53 22.33,16.68 21.85,64.09 2.2,83.79 -1.35,2.85 -2.8,5.3 -4.29,8.55l-1.3 2.87 -2.16 2.3c-2.55,2.69 -8.45,11.18 -10.98,16.13l2.05 10.35 -11.86 5.57c-0.06,0.14 -0.12,0.27 -0.18,0.4 -1.19,2.49 -2,4.39 -3.54,6.85 -0.15,0.24 -0.29,0.47 -0.44,0.7z"/>
    <path class="fil4" d="M1240.1 213c15.04,0 22.05,-0.41 24.63,14.74 1.65,9.65 0.65,26.64 0.65,37.07 0,25.5 0,51 0,76.52 0.01,46 1.31,46.56 -30.61,46.46l-153.04 0.01c-15.41,0.06 -23.54,1.96 -26.63,-12.89 -2.01,-9.62 -1.69,-142.96 0.35,-150.53 3.46,-12.76 11.88,-11.37 26.27,-11.37l158.37 0zm-235.11 221.82l4.18 2.21c5.34,2.43 0.18,0.87 5.16,1.84 8.49,1.63 98.07,-0.52 110.11,-0.19 3.22,3.63 1.64,0.5 2.8,5.92 0.28,1.24 0.29,7.22 0.28,8.79 -0.21,13.01 -1.33,42.87 1.95,52.14 8.39,2.3 51.7,3.98 58.45,-0.39 2.54,-2.42 1.02,1.61 3.12,-4.41 0.96,-2.75 0.82,-5.07 0.85,-8.01 0.1,-5.87 -0.08,-12.02 -0.08,-17.93 0,-12.2 0,-24.42 0.05,-36.62 31.61,2.07 62.86,1.1 94.48,1.08 37.05,-0.02 34.1,-6.78 34.1,-60.54 0,-63.57 1.42,-128.81 -0.25,-192.18 -8.45,-33.42 -11.99,-29.71 -48.09,-29.71l-238.48 -0.02c-14.95,-0.08 -22.7,0.11 -28.88,11.46 -5.22,9.6 -5.55,21.4 -5.56,34.29l0.01 158.37c0,33.02 -2.96,47.33 5.78,73.92z"/>
    <path class="fil5" d="M787.37 494.35c-2.2,-0.84 1.39,1.93 -1.92,-1.51 -1.01,-1.07 -1.07,-1.15 -2.12,-2.52 -25.68,-33.4 -50.01,-81.09 -58.25,-121.4 -6.71,-32.85 -9.65,-50.94 -9.01,-88.13 0.34,-19.79 7.91,-69.67 14.92,-80.84 5.23,-39.7 72.36,-135.09 76.46,-147.09 8.5,-24.83 -13.62,-37.39 -36.71,-32.97 -7.81,1.5 -5.63,2.15 -11.12,6.3 -42.67,32.23 -80.93,145.26 -90.14,189.37 -18.21,87.08 -8.73,167.75 30.65,247.71 16.41,33.3 36.87,66.28 59.49,89.77 16.62,17.3 38.73,12.75 48.02,-5.37 8.63,-16.82 -13.73,-36.43 -20.27,-53.33z"/>
    <path class="fil5" d="M1566.86 444.5c-0.96,7.29 -18.71,31.81 -23.75,39.73 -6.13,9.64 -23.1,30.53 -24.48,39.07 -4.17,2.91 -7.7,8.79 -8.63,15.61 -1.53,10.85 2.24,12.03 4.87,20.05l11.07 7.74c13.46,1.43 21.33,-0.01 29.88,-5.92 5.41,-3.75 15.61,-15.38 17.28,-20.84 7.18,-2.78 30.1,-42.69 35.48,-52.4 12.64,-22.84 21.32,-48.15 25.83,-56.38l3.17 -4.62c-0.49,-5.86 5.13,-23.71 8.39,-26.95 2.21,-29.44 15.41,-47.94 13.76,-109.89 -1.82,-68.13 -41.55,-197.46 -88.46,-249.31 -3.48,-3.87 -4.23,-4.46 -8.22,-7.83l-5.9 -6.72c-22.94,-5.06 -30.1,-6.42 -44.34,9.8 -11.9,13.58 11.23,41.68 23.55,61.23 46.09,73.12 73.33,139.4 65.82,232.24 -1.6,19.92 -19.76,101.64 -35.32,115.39z"/>
    <path class="fil5" d="M1463.19 188.26l4.74 5.13c15.11,19.84 20.05,41.25 23.59,66.08 2.52,17.59 5.15,62.48 0,80.44 -8.13,28.35 -23.71,53.68 -37.87,77.89l-17.58 32.2c-10.02,22.89 -0.35,22.54 10.97,33.14l22.58 0.27c17.64,-5.03 40.39,-42.93 48.44,-59.89 19.31,-40.73 15.26,-41.97 27.99,-80.44 3.2,-35.02 5.08,-32.2 3.41,-72.99 -1.56,-38.11 -28.26,-105.11 -50.73,-135.78 -6.16,-8.39 -14.05,-16.15 -14.36,-19.87 -5.63,-1.94 -4.84,-2.31 -8.98,-5.19 -24.55,-17.08 -38.05,-3.55 -39.05,18.56 -1.21,27.33 18.84,40.19 26.83,60.44z"/>
    <path class="fil5" d="M770.07 314.61c4.5,45.48 22.36,94.39 46.58,131.56 2.43,3.71 3.59,6.29 6.4,9.79 7.9,9.77 17.84,16.47 21.84,22.37 0.18,0 27.81,2.14 28.04,2.17l2.03 -2.11c21.1,-20.87 9.51,-21.32 1.51,-48.09l0.91 -2.33c-8.16,-3.12 -11.27,-14.01 -15.87,-21.27 -11.38,-17.89 -27.89,-47.79 -32.43,-69.02 -5.65,-26.54 -5.3,-66.76 0.78,-95.19 1.5,-6.89 6.09,-21.87 5.83,-26.91 1.53,-1.62 1.2,-1.04 2.77,-3.54 1.83,-2.92 0.77,-1.32 2.44,-4.85 4.11,-8.77 0.67,-5.45 7.71,-8.77 -0.98,-4.88 11.7,-23.4 16.62,-28.63 2.75,-6.03 3.79,-6.01 5.8,-12.21 15.4,-9.37 19.72,-70.05 -15.77,-58.64 -35.86,11.54 -67.05,91.09 -76.5,122.54 -9.59,32.01 -9.89,57.07 -8.69,93.14z"/>
    <path class="fil5" d="M1361.59 347.5c-4.83,18.31 -14.87,19.5 -7.12,46.14 8.46,2.05 13.96,13.18 32.89,8.01 11.32,-3.11 18.06,-10.91 23.96,-18.97 14.62,-19.89 17.14,-33.79 24.32,-59.15 2.92,-35.88 -0.53,-61.04 -12.16,-89.3 -4.45,-10.76 -11.46,-23.37 -17.36,-32.33 -12.46,-18.89 -24.71,-13.99 -34.93,-15.83 -3.78,5.97 -18.02,5.36 -15.75,39.71 0.88,13.12 15.24,22.78 20.5,35 13.26,30.73 -1.76,81.69 -14.36,86.75z"/>
    <path class="fil5" d="M885.66 333.44l3.28 6.85c1.14,2.71 1.79,4.75 2.86,7.49 10.42,26.48 13.46,23.81 22.78,40.57 1.94,0.19 2.91,-2.48 1.31,1.7 10.78,4.5 16.62,12.98 35.03,7.05 40.32,-13.01 -1.26,-58.36 -8.32,-80.65 -24.57,-77.75 42.4,-68.44 14.85,-127.06 -4.24,-2.78 -2.22,-2.06 -6.51,-3.89 -3.4,-1.45 -3.79,-0.45 -6.23,-2.16 -19.86,-1.44 -25.89,5.9 -34.71,20.08 -41.8,67.17 -20.58,108.6 -24.34,130.02z"/>
    <path class="fil4" d="M1109.71 527.88c-2.63,18.4 -0.52,51.46 -0.67,71.52 -0.19,29.73 7.43,24.23 47.41,24.23 36.29,0 53.7,5.78 54.08,-18.85 0.33,-20.46 1.57,-54.05 -0.38,-73.07 -2.36,-12.06 -6.52,-13.2 -19.79,-13.32l-60.65 0.01c-14.69,0.08 -14.56,0.58 -20,9.48z"/>
    <path class="fil4" d="M965.97 597.63c14.68,2.54 121.31,2.72 130.37,-1.21 2.69,-8.08 1.65,-19.09 1.74,-29.14 0.25,-28.73 -0.79,-21.24 -69.74,-21.24 -8.94,0 -54.97,-0.96 -59.8,0.7 -11.33,3.9 -6.67,42.35 -2.58,50.88z"/>
    <path class="fil4" d="M1221.93 593.99c10.62,8.54 48.97,4.63 64.43,4.63l61.76 -0.18c7.87,-1.81 3.35,-0.94 5.41,-3.31 5.14,-5.02 3.92,-35.85 1.94,-44.6 -6.69,-7.06 -19.77,-4.47 -31.73,-4.46 -111.58,0.02 -106.18,-12.83 -101.81,47.92z"/>
   </g>
   <path class="fil6" d="M132.09 1362.19l-37.26 34.88 -20.3 0 29.39 -34.88 28.17 0zm14.1 53.27l-5.26 24.61 -85.51 0 -9.55 44.92 74.76 0 -4.77 22.93 -75.02 0 -10.51 49.69 85.76 0 -5.25 24.6 -110.84 0 35.34 -166.74 110.85 0zm163.03 50.89l-26.04 115.85 -25.09 0 7.87 -33.2c-3.49,7.65 -8.35,14.9 -14.56,21.74 -7.64,8.44 -14.8,12.66 -21.51,12.66 -21.02,0 -30.97,-10.42 -29.86,-31.3 0.16,-4.61 1.04,-10.42 2.63,-17.43l15.27 -68.32 25.09 0 -16.24 73.34c-0.96,4.3 -1.44,7.96 -1.44,10.99 0,6.05 2.46,9.08 7.41,9.08 19.43,0 36.54,-31.13 51.36,-93.4l25.09 0zm174.96 47.53l-15.54 68.32 -25.8 0 16.97 -73.34c1.1,-4.62 1.67,-8.19 1.67,-10.75 0,-6.22 -2.46,-9.32 -7.39,-9.32 -11.47,0 -21.51,7.97 -30.1,23.89 -5.74,10.51 -10.44,23.58 -14.1,39.18 -1.44,6.37 -3.74,16.48 -6.93,30.33l-25.79 0 16.97 -73.34c1.1,-4.77 1.66,-8.51 1.66,-11.23 0,-5.9 -2.16,-8.84 -6.46,-8.84 -10.82,0 -20.63,7.25 -29.39,21.74 -6.35,10.67 -11.45,23.57 -15.28,38.7l-8.58 32.96 -25.57 0 26.52 -115.85 25.56 0 -7.4 32.96c3.83,-8.29 8.92,-15.69 15.3,-22.22 7.95,-7.96 15.67,-11.94 23.16,-11.94 8.28,0 14.81,2.78 19.6,8.36 5.09,6.06 7.24,14.65 6.45,25.8 3.5,-8.44 8.29,-15.93 14.34,-22.46 7.16,-7.81 14.4,-11.7 21.73,-11.7 20.39,0.15 30.58,10.67 30.58,31.53 0,5.26 -0.74,10.99 -2.15,17.2zm163.01 -20.3l-22.22 7.88c-3.35,-9.4 -9.39,-14.09 -18.16,-14.09 -3.97,0 -7.5,1.2 -10.62,3.57 -3.12,2.39 -4.67,4.94 -4.67,7.64 0,4.31 4.08,8.2 12.18,11.71 12.27,5.25 19.77,8.84 22.45,10.75 7.97,5.9 11.96,14.02 11.96,24.36 0,11.63 -4.54,21.03 -13.61,28.19 -9.08,7.17 -19.85,10.76 -32.27,10.76 -22.27,0 -35.66,-12.2 -40.12,-36.56l23.42 -5.96c1.59,12.89 8.12,19.27 19.59,19.11 4.77,0 9.03,-1.47 12.78,-4.42 3.73,-2.94 5.61,-6.64 5.61,-11.11 0,-4.3 -3.99,-8.11 -11.96,-11.46 -12.56,-5.1 -19.97,-8.45 -22.2,-10.03 -7.98,-5.25 -11.95,-12.59 -11.95,-21.98 0,-11.47 4.31,-20.55 12.91,-27.23 7.95,-6.37 18.08,-9.55 30.33,-9.55 17.04,0 29.24,9.47 36.56,28.43zm104 9.32c0,22.76 -4.86,41.4 -14.57,55.9 -11.31,17.03 -28.04,25.56 -50.16,25.56 -26.12,0 -39.11,-13.23 -38.94,-39.66 0.15,-22.46 5.02,-40.85 14.56,-55.18 11.47,-16.88 28.12,-25.33 49.94,-25.33 25.95,0 39.01,12.9 39.17,38.71zm-24.84 4.05c0,-6.85 -1.43,-11.75 -4.31,-14.69 -2.85,-2.95 -7.87,-4.42 -15.03,-4.42 -12.13,0 -21.26,5.97 -27.49,17.91 -4.76,9.55 -7.24,21.34 -7.39,35.36 0,6.53 1.11,11.23 3.34,14.1 3.01,3.82 8.34,5.73 16,5.73 12.42,0 21.67,-6.13 27.72,-18.4 4.93,-9.55 7.31,-21.42 7.16,-35.59zm135.06 7.16l-15.29 68.08 -25.31 0 16.47 -73.09c0.79,-3.67 1.2,-6.93 1.2,-9.79 0,-7.01 -2.54,-10.52 -7.64,-10.52 -17.52,0 -30.81,17.29 -39.9,51.85l-10.99 41.56 -25.08 0 26.04 -115.85 25.09 0 -8.13 32.72c11.31,-22.46 24.19,-33.68 38.69,-33.68 17.83,0 26.75,10.52 26.75,31.54 0,5.41 -0.64,11.15 -1.91,17.19zm120.02 -18.39c0,7.17 -0.63,13.7 -1.92,19.59l-14.8 66.89 -25.09 0 15.77 -71.9c1.29,-5.9 1.92,-10.12 1.92,-12.67 -0.17,-5.57 -2.47,-8.35 -6.93,-8.35 -11.79,0 -22.53,8.76 -32.25,26.27 -7.49,13.22 -13.07,28.44 -16.73,45.63l-4.53 21.02 -25.09 0 36.07 -166.74 25.09 0 -17.92 83.85c4.63,-11.15 10.43,-19.84 17.45,-26.04 6.53,-5.9 13.05,-8.84 19.59,-8.84 19.6,0 29.39,10.44 29.39,31.3zm111.17 7.17c0,22.76 -4.86,41.4 -14.56,55.9 -11.32,17.03 -28.05,25.56 -50.17,25.56 -26.12,0 -39.11,-13.23 -38.94,-39.66 0.15,-22.46 5.02,-40.85 14.56,-55.18 11.47,-16.88 28.12,-25.33 49.94,-25.33 25.95,0 39.01,12.9 39.17,38.71zm-24.84 4.05c0,-6.85 -1.43,-11.75 -4.31,-14.69 -2.85,-2.95 -7.87,-4.42 -15.04,-4.42 -12.13,0 -21.26,5.97 -27.49,17.91 -4.76,9.55 -7.24,21.34 -7.39,35.36 0,6.53 1.11,11.23 3.34,14.1 3.01,3.82 8.34,5.73 16,5.73 12.42,0 21.67,-6.13 27.72,-18.4 4.93,-9.55 7.31,-21.42 7.16,-35.59zm70.08 63.06l-2.87 12.18 -26.27 32.26 -10.02 0 11.46 -46.59c0.79,-3.34 2.71,-6.12 5.72,-8.35 3.04,-2.23 6.38,-3.34 10.04,-3.34 3.51,0 6.44,1.07 8.85,3.22 2.39,2.15 3.57,4.74 3.57,7.77 0,0.96 -0.15,1.91 -0.47,2.86zm179.98 -152.88l-37.26 34.87 -20.32 0 29.37 -34.87 28.21 0zm-0.47 76.2c0,12.91 -9.4,22.93 -28.21,30.1 -12.89,4.94 -27.61,7.8 -44.2,8.59 -0.78,4.15 -1.18,7.49 -1.18,10.05 0,12.41 5.26,18.63 15.77,18.63 4.45,0 8.28,-0.81 11.46,-2.39 4.31,-2.23 9.57,-6.53 15.78,-12.91l16.48 16.73c-8.61,8.6 -16.06,14.41 -22.33,17.44 -6.31,3.02 -13.42,4.54 -21.39,4.54 -12.91,0 -22.86,-3.99 -29.87,-11.96 -6.69,-7.48 -10.04,-17.75 -10.04,-30.81 0,-19.27 5.2,-36.3 15.53,-51.12 11.64,-16.56 26.76,-24.84 45.41,-24.84 9.55,0 17.74,2.23 24.58,6.69 8.13,5.25 12.21,12.34 12.21,21.26zm-24.61 0c0,-3.02 -4.08,-4.54 -12.18,-4.54 -12.91,0 -22.78,7.72 -29.64,23.17 8.45,-1.26 16.8,-3.26 25.09,-5.96 11.16,-3.99 16.74,-8.2 16.74,-12.66zm232.28 -48.25l-20.78 15.05c-4.79,-7.64 -9.17,-12.98 -13.15,-16.01 -5.27,-3.98 -12.01,-5.97 -20.3,-5.97 -18.65,0 -33.7,9.71 -45.17,29.15 -9.86,16.87 -14.8,35.51 -14.8,55.89 0,24.22 10.76,36.32 32.25,36.32 7.98,0 15.62,-2.39 22.94,-7.17 3.83,-2.54 10.36,-8.19 19.6,-16.96l16.96 17.2c-10.35,10.99 -20,18.87 -28.91,23.65 -10.03,5.41 -21.34,8.13 -33.92,8.13 -18.63,0 -32.66,-5.59 -42.05,-16.74 -8.27,-9.71 -12.42,-23.17 -12.42,-40.36 0,-30.1 6.85,-55.66 20.55,-76.68 16.08,-24.85 38.86,-37.27 68.33,-37.27 12.25,0 22.53,2.94 30.8,8.84 6.38,4.46 13.07,12.1 20.08,22.94zm94.93 57.81c0,22.76 -4.86,41.4 -14.57,55.9 -11.32,17.03 -28.03,25.56 -50.18,25.56 -26.1,0 -39.09,-13.23 -38.94,-39.66 0.16,-22.46 5.02,-40.85 14.58,-55.18 11.47,-16.88 28.1,-25.33 49.92,-25.33 25.97,0 39.01,12.9 39.18,38.71zm-24.85 4.05c0,-6.85 -1.42,-11.75 -4.31,-14.69 -2.86,-2.95 -7.87,-4.42 -15.04,-4.42 -12.1,0 -21.26,5.97 -27.48,17.91 -4.77,9.55 -7.25,21.34 -7.41,35.36 0,6.53 1.11,11.23 3.34,14.1 3.03,3.82 8.35,5.73 16.01,5.73 12.41,0 21.65,-6.13 27.71,-18.4 4.93,-9.55 7.32,-21.42 7.17,-35.59zm204.59 6.93l-15.54 68.32 -25.8 0 16.96 -73.34c1.12,-4.62 1.67,-8.19 1.67,-10.75 0,-6.22 -2.46,-9.32 -7.39,-9.32 -11.47,0 -21.51,7.97 -30.1,23.89 -5.74,10.51 -10.45,23.58 -14.09,39.18 -1.45,6.37 -3.75,16.48 -6.94,30.33l-25.79 0 16.96 -73.34c1.11,-4.77 1.67,-8.51 1.67,-11.23 0,-5.9 -2.15,-8.84 -6.46,-8.84 -10.83,0 -20.63,7.25 -29.39,21.74 -6.36,10.67 -11.46,23.57 -15.28,38.7l-8.59 32.96 -25.56 0 26.5 -115.85 25.56 0 -7.39 32.96c3.82,-8.29 8.91,-15.69 15.28,-22.22 7.96,-7.96 15.68,-11.94 23.17,-11.94 8.27,0 14.8,2.78 19.6,8.36 5.08,6.06 7.23,14.65 6.45,25.8 3.49,-8.44 8.29,-15.93 14.33,-22.46 7.16,-7.81 14.4,-11.7 21.73,-11.7 20.39,0.15 30.58,10.67 30.58,31.53 0,5.26 -0.72,10.99 -2.15,17.2zm166.12 -98.42l-35.59 166.74 -22.22 0 -47.54 -115.38 -24.38 115.38 -25.32 0 35.37 -166.74 20.31 0 48.73 118.72 25.32 -118.72 25.33 0zm97.32 77.88c0,12.91 -9.4,22.93 -28.2,30.1 -12.88,4.78 -27.62,7.64 -44.19,8.59 -0.79,4.15 -1.2,7.49 -1.2,10.05 0,12.41 5.26,18.63 15.77,18.63 4.46,0 8.27,-0.81 11.45,-2.39 4.31,-2.23 9.57,-6.53 15.78,-12.91l16.47 16.73c-8.6,8.6 -16.04,14.41 -22.32,17.44 -6.3,3.02 -13.41,4.54 -21.39,4.54 -12.91,0 -22.86,-3.99 -29.87,-11.96 -6.69,-7.48 -10.02,-17.75 -10.02,-30.81 0,-19.27 5.19,-36.3 15.52,-51.12 11.64,-16.56 26.75,-24.84 45.41,-24.84 9.54,0 17.75,2.23 24.61,6.69 8.11,5.25 12.18,12.34 12.18,21.26zm-24.61 0c0,-3.02 -4.08,-4.54 -12.18,-4.54 -12.91,0 -22.78,7.72 -29.64,23.17 8.46,-1.26 16.81,-3.26 25.09,-5.96 11.16,-3.99 16.73,-8.2 16.73,-12.66zm127.64 -2.39l-19.82 11.47c-5.41,-8.92 -11.62,-13.37 -18.63,-13.37 -11.13,0 -20.23,5.97 -27.24,17.91 -6.04,10.36 -9.06,21.67 -9.06,33.93 0,13.22 4.86,19.83 14.56,19.83 4.31,0 7.98,-0.81 10.99,-2.39 4.15,-1.91 9.57,-6.06 16.25,-12.43l16.73 16.25c-9.09,8.44 -16.73,14.21 -22.93,17.31 -6.23,3.12 -13.23,4.67 -21.04,4.67 -13.53,0 -23.65,-4.14 -30.32,-12.42 -5.9,-7.17 -8.84,-17.05 -8.84,-29.62 0,-19.6 5.16,-36.79 15.5,-51.6 11.47,-16.72 26.62,-25.09 45.4,-25.09 16.88,0 29.7,8.52 38.46,25.56zm66.98 -24.6l-3.82 19.83 -16.48 0 -13.62 66.41c-0.78,3.66 0.71,5.49 4.55,5.49l8.12 0 -4.77 24.12 -9.32 0c-15.12,0 -22.7,-7.72 -22.7,-23.17 0,-3.02 0.32,-6.12 0.96,-9.31l12.88 -63.54 -14.33 0 3.82 -19.83 14.58 0 6.92 -33.68 23.9 0 -7.17 33.68 16.48 0zm63.88 -50.89l-16.48 81.93 -10.75 47.31 -22.46 0 8.85 -49.93 16.01 -79.31 24.82 0zm-46.09 168.66c-3.68,0 -6.7,-1.24 -9.09,-3.71 -2.38,-2.46 -3.57,-5.53 -3.57,-9.19 0,-4.3 1.67,-8.11 5.01,-11.46 3.34,-3.34 7.16,-5.02 11.47,-5.02 3.83,0 6.89,1.24 9.19,3.7 2.31,2.47 3.47,5.54 3.47,9.19 0,4.31 -1.62,8.13 -4.88,11.47 -3.27,3.35 -7.14,5.03 -11.59,5.03z"/>
  </g>
 </g>
</svg>
